{
	"patcher" : 	{
		"fileversion" : 1,
		"appversion" : 		{
			"major" : 7,
			"minor" : 2,
			"revision" : 3,
			"architecture" : "x86",
			"modernui" : 1
		}
,
		"rect" : [ 474.0, 102.0, 675.0, 729.0 ],
		"bglocked" : 0,
		"openinpresentation" : 0,
		"default_fontsize" : 12.0,
		"default_fontface" : 0,
		"default_fontname" : "Arial",
		"gridonopen" : 1,
		"gridsize" : [ 15.0, 15.0 ],
		"gridsnaponopen" : 1,
		"objectsnaponopen" : 1,
		"statusbarvisible" : 2,
		"toolbarvisible" : 1,
		"lefttoolbarpinned" : 0,
		"toptoolbarpinned" : 0,
		"righttoolbarpinned" : 0,
		"bottomtoolbarpinned" : 0,
		"toolbars_unpinned_last_save" : 0,
		"tallnewobj" : 0,
		"boxanimatetime" : 200,
		"enablehscroll" : 1,
		"enablevscroll" : 1,
		"devicewidth" : 0.0,
		"description" : "",
		"digest" : "",
		"tags" : "",
		"style" : "",
		"subpatcher_template" : "",
		"boxes" : [ 			{
				"box" : 				{
					"id" : "obj-1",
					"maxclass" : "newobj",
					"numinlets" : 1,
					"numoutlets" : 1,
					"outlettype" : [ "" ],
					"patching_rect" : [ 391.0, 355.0, 83.0, 22.0 ],
					"style" : "",
					"text" : "loadmess -30"
				}

			}
, 			{
				"box" : 				{
					"id" : "obj-7",
					"maxclass" : "newobj",
					"numinlets" : 2,
					"numoutlets" : 2,
					"outlettype" : [ "bang", "" ],
					"patching_rect" : [ 434.0, 173.0, 36.0, 22.0 ],
					"style" : "",
					"text" : "sel 0"
				}

			}
, 			{
				"box" : 				{
					"id" : "obj-3",
					"maxclass" : "newobj",
					"numinlets" : 1,
					"numoutlets" : 3,
					"outlettype" : [ "", "int", "int" ],
					"patching_rect" : [ 434.0, 207.0, 50.0, 22.0 ],
					"style" : "",
					"text" : "change"
				}

			}
, 			{
				"box" : 				{
					"id" : "obj-2",
					"maxclass" : "message",
					"numinlets" : 2,
					"numoutlets" : 1,
					"outlettype" : [ "" ],
					"patching_rect" : [ 434.0, 276.0, 82.0, 22.0 ],
					"style" : "",
					"text" : "polyphony $1"
				}

			}
, 			{
				"box" : 				{
					"id" : "obj-46",
					"maxclass" : "newobj",
					"numinlets" : 2,
					"numoutlets" : 1,
					"outlettype" : [ "" ],
					"patching_rect" : [ 112.666672, 276.0, 49.0, 22.0 ],
					"style" : "",
					"text" : "pack f f"
				}

			}
, 			{
				"box" : 				{
					"id" : "obj-45",
					"maxclass" : "newobj",
					"numinlets" : 6,
					"numoutlets" : 1,
					"outlettype" : [ "" ],
					"patching_rect" : [ 142.666672, 238.000015, 96.0, 22.0 ],
					"style" : "",
					"text" : "scale -1. 1. 0. 1."
				}

			}
, 			{
				"box" : 				{
					"id" : "obj-44",
					"maxclass" : "newobj",
					"numinlets" : 6,
					"numoutlets" : 1,
					"outlettype" : [ "" ],
					"patching_rect" : [ 108.25, 206.000015, 116.0, 22.0 ],
					"style" : "",
					"text" : "scale -1. 1. 220 800"
				}

			}
, 			{
				"box" : 				{
					"id" : "obj-43",
					"maxclass" : "newobj",
					"numinlets" : 1,
					"numoutlets" : 2,
					"outlettype" : [ "float", "float" ],
					"patching_rect" : [ 115.333336, 169.333344, 63.0, 22.0 ],
					"style" : "",
					"text" : "unpack f f"
				}

			}
, 			{
				"box" : 				{
					"id" : "obj-41",
					"maxclass" : "message",
					"numinlets" : 2,
					"numoutlets" : 1,
					"outlettype" : [ "" ],
					"patching_rect" : [ 265.833374, 286.000031, 58.0, 22.0 ],
					"style" : "",
					"text" : "target $1"
				}

			}
, 			{
				"box" : 				{
					"id" : "obj-38",
					"maxclass" : "newobj",
					"numinlets" : 2,
					"numoutlets" : 1,
					"outlettype" : [ "int" ],
					"patching_rect" : [ 265.833374, 256.666687, 29.5, 22.0 ],
					"style" : "",
					"text" : "+ 1"
				}

			}
, 			{
				"box" : 				{
					"id" : "obj-33",
					"maxclass" : "comment",
					"numinlets" : 1,
					"numoutlets" : 0,
					"patching_rect" : [ 176.0, 129.666672, 111.666664, 20.0 ],
					"style" : "",
					"text" : "Tee El Bee ≠ BLT"
				}

			}
, 			{
				"box" : 				{
					"id" : "obj-31",
					"maxclass" : "newobj",
					"numinlets" : 1,
					"numoutlets" : 2,
					"outlettype" : [ "", "bang" ],
					"patching_rect" : [ 142.666672, 128.666672, 30.0, 22.0 ],
					"style" : "",
					"text" : "t l b"
				}

			}
, 			{
				"box" : 				{
					"id" : "obj-30",
					"maxclass" : "newobj",
					"numinlets" : 2,
					"numoutlets" : 1,
					"outlettype" : [ "int" ],
					"patching_rect" : [ 307.833374, 191.333328, 29.5, 22.0 ],
					"style" : "",
					"text" : "- 1"
				}

			}
, 			{
				"box" : 				{
					"id" : "obj-29",
					"maxclass" : "newobj",
					"numinlets" : 5,
					"numoutlets" : 4,
					"outlettype" : [ "int", "", "", "int" ],
					"patching_rect" : [ 265.833374, 226.0, 61.0, 22.0 ],
					"style" : "",
					"text" : "counter"
				}

			}
, 			{
				"box" : 				{
					"id" : "obj-26",
					"maxclass" : "newobj",
					"numinlets" : 2,
					"numoutlets" : 2,
					"outlettype" : [ "", "" ],
					"patching_rect" : [ 148.333374, 62.000008, 147.0, 22.0 ],
					"style" : "",
					"text" : "zl.iter 2 @zlmaxsize 1000"
				}

			}
, 			{
				"box" : 				{
					"id" : "obj-25",
					"maxclass" : "number",
					"numinlets" : 1,
					"numoutlets" : 2,
					"outlettype" : [ "", "bang" ],
					"parameter_enable" : 0,
					"patching_rect" : [ 307.833374, 159.333344, 50.0, 22.0 ],
					"style" : ""
				}

			}
, 			{
				"box" : 				{
					"id" : "obj-23",
					"maxclass" : "newobj",
					"numinlets" : 2,
					"numoutlets" : 1,
					"outlettype" : [ "int" ],
					"patching_rect" : [ 307.833374, 126.666672, 29.5, 22.0 ],
					"style" : "",
					"text" : "/ 2"
				}

			}
, 			{
				"box" : 				{
					"id" : "obj-22",
					"maxclass" : "number",
					"numinlets" : 1,
					"numoutlets" : 2,
					"outlettype" : [ "", "bang" ],
					"parameter_enable" : 0,
					"patching_rect" : [ 307.833374, 95.333328, 50.0, 22.0 ],
					"style" : ""
				}

			}
, 			{
				"box" : 				{
					"id" : "obj-20",
					"maxclass" : "newobj",
					"numinlets" : 2,
					"numoutlets" : 2,
					"outlettype" : [ "", "" ],
					"patching_rect" : [ 307.833374, 62.000008, 137.0, 22.0 ],
					"style" : "",
					"text" : "zl.len @zlmaxsize 1000"
				}

			}
, 			{
				"box" : 				{
					"id" : "obj-11",
					"maxclass" : "newobj",
					"numinlets" : 1,
					"numoutlets" : 2,
					"outlettype" : [ "", "" ],
					"patching_rect" : [ 229.0, 24.000002, 57.0, 22.0 ],
					"style" : "",
					"text" : "trigger l l"
				}

			}
, 			{
				"box" : 				{
					"id" : "obj-42",
					"maxclass" : "live.gain~",
					"numinlets" : 2,
					"numoutlets" : 5,
					"orientation" : 1,
					"outlettype" : [ "signal", "signal", "", "float", "list" ],
					"parameter_enable" : 1,
					"patching_rect" : [ 176.0, 368.666687, 136.0, 48.0 ],
					"presentation_rect" : [ 0.0, 0.0, 50.0, 48.0 ],
					"saved_attribute_attributes" : 					{
						"valueof" : 						{
							"parameter_longname" : "live.gain~",
							"parameter_shortname" : "live.gain~",
							"parameter_type" : 0,
							"parameter_mmin" : -70.0,
							"parameter_mmax" : 6.0,
							"parameter_initial" : [ 0.0 ],
							"parameter_unitstyle" : 4
						}

					}
,
					"varname" : "live.gain~"
				}

			}
, 			{
				"box" : 				{
					"id" : "obj-39",
					"maxclass" : "message",
					"numinlets" : 2,
					"numoutlets" : 1,
					"outlettype" : [ "" ],
					"patching_rect" : [ 263.916687, 464.333344, 74.0, 22.0 ],
					"style" : "",
					"text" : "startwindow"
				}

			}
, 			{
				"box" : 				{
					"id" : "obj-37",
					"maxclass" : "message",
					"numinlets" : 2,
					"numoutlets" : 1,
					"outlettype" : [ "" ],
					"patching_rect" : [ 284.416687, 425.666656, 33.0, 22.0 ],
					"style" : "",
					"text" : "stop"
				}

			}
, 			{
				"box" : 				{
					"id" : "obj-35",
					"maxclass" : "message",
					"numinlets" : 2,
					"numoutlets" : 1,
					"outlettype" : [ "" ],
					"patching_rect" : [ 236.583359, 425.666656, 34.0, 22.0 ],
					"style" : "",
					"text" : "start"
				}

			}
, 			{
				"box" : 				{
					"id" : "obj-10",
					"maxclass" : "ezdac~",
					"numinlets" : 2,
					"numoutlets" : 0,
					"patching_rect" : [ 179.25, 434.0, 45.0, 45.0 ],
					"style" : ""
				}

			}
, 			{
				"box" : 				{
					"id" : "obj-9",
					"maxclass" : "newobj",
					"numinlets" : 1,
					"numoutlets" : 1,
					"outlettype" : [ "signal" ],
					"patching_rect" : [ 176.0, 320.000031, 121.0, 22.0 ],
					"style" : "",
					"text" : "poly~ boids-poly 128"
				}

			}
, 			{
				"box" : 				{
					"id" : "obj-4",
					"maxclass" : "newobj",
					"numinlets" : 0,
					"numoutlets" : 1,
					"outlettype" : [ "" ],
					"patcher" : 					{
						"fileversion" : 1,
						"appversion" : 						{
							"major" : 7,
							"minor" : 2,
							"revision" : 3,
							"architecture" : "x86",
							"modernui" : 1
						}
,
						"rect" : [ 616.0, 79.0, 755.0, 679.0 ],
						"bgcolor" : [ 0.847059, 0.854902, 0.870588, 1.0 ],
						"bglocked" : 0,
						"openinpresentation" : 0,
						"default_fontsize" : 12.0,
						"default_fontface" : 0,
						"default_fontname" : "Arial",
						"gridonopen" : 1,
						"gridsize" : [ 15.0, 15.0 ],
						"gridsnaponopen" : 1,
						"objectsnaponopen" : 1,
						"statusbarvisible" : 2,
						"toolbarvisible" : 1,
						"lefttoolbarpinned" : 0,
						"toptoolbarpinned" : 0,
						"righttoolbarpinned" : 0,
						"bottomtoolbarpinned" : 0,
						"toolbars_unpinned_last_save" : 0,
						"tallnewobj" : 0,
						"boxanimatetime" : 200,
						"enablehscroll" : 1,
						"enablevscroll" : 1,
						"devicewidth" : 0.0,
						"description" : "",
						"digest" : "",
						"tags" : "",
						"style" : "",
						"subpatcher_template" : "",
						"boxes" : [ 							{
								"box" : 								{
									"id" : "obj-118",
									"maxclass" : "newobj",
									"numinlets" : 2,
									"numoutlets" : 2,
									"outlettype" : [ "", "" ],
									"patching_rect" : [ 425.0, 546.0, 143.0, 22.0 ],
									"style" : "",
									"text" : "zl.lace @zlmaxsize 1000"
								}

							}
, 							{
								"box" : 								{
									"id" : "obj-117",
									"linecount" : 2,
									"maxclass" : "newobj",
									"numinlets" : 1,
									"numoutlets" : 2,
									"outlettype" : [ "", "" ],
									"patching_rect" : [ 620.0, 500.0, 101.0, 35.0 ],
									"style" : "",
									"text" : "jit.spill @plane 1 @listlength 1000"
								}

							}
, 							{
								"box" : 								{
									"id" : "obj-116",
									"maxclass" : "newobj",
									"numinlets" : 1,
									"numoutlets" : 2,
									"outlettype" : [ "", "" ],
									"patching_rect" : [ 425.0, 500.0, 191.0, 22.0 ],
									"style" : "",
									"text" : "jit.spill @plane 0 @listlength 1000"
								}

							}
, 							{
								"box" : 								{
									"comment" : "",
									"id" : "obj-115",
									"maxclass" : "outlet",
									"numinlets" : 1,
									"numoutlets" : 0,
									"patching_rect" : [ 425.0, 574.0, 30.0, 30.0 ],
									"style" : ""
								}

							}
, 							{
								"box" : 								{
									"fontname" : "Arial",
									"fontsize" : 9.0,
									"id" : "obj-1",
									"maxclass" : "newobj",
									"numinlets" : 0,
									"numoutlets" : 0,
									"patcher" : 									{
										"fileversion" : 1,
										"appversion" : 										{
											"major" : 7,
											"minor" : 2,
											"revision" : 3,
											"architecture" : "x86",
											"modernui" : 1
										}
,
										"rect" : [ 370.0, 368.0, 600.0, 400.0 ],
										"bglocked" : 0,
										"openinpresentation" : 0,
										"default_fontsize" : 12.0,
										"default_fontface" : 0,
										"default_fontname" : "Arial",
										"gridonopen" : 1,
										"gridsize" : [ 15.0, 15.0 ],
										"gridsnaponopen" : 1,
										"objectsnaponopen" : 1,
										"statusbarvisible" : 2,
										"toolbarvisible" : 1,
										"lefttoolbarpinned" : 0,
										"toptoolbarpinned" : 0,
										"righttoolbarpinned" : 0,
										"bottomtoolbarpinned" : 0,
										"toolbars_unpinned_last_save" : 0,
										"tallnewobj" : 0,
										"boxanimatetime" : 200,
										"enablehscroll" : 1,
										"enablevscroll" : 1,
										"devicewidth" : 0.0,
										"description" : "",
										"digest" : "",
										"tags" : "",
										"style" : "",
										"subpatcher_template" : "",
										"boxes" : [ 											{
												"box" : 												{
													"id" : "obj-1",
													"maxclass" : "button",
													"numinlets" : 1,
													"numoutlets" : 1,
													"outlettype" : [ "bang" ],
													"patching_rect" : [ 56.0, 74.0, 15.0, 15.0 ],
													"style" : ""
												}

											}
, 											{
												"box" : 												{
													"fontname" : "Arial",
													"fontsize" : 9.0,
													"id" : "obj-2",
													"maxclass" : "newobj",
													"numinlets" : 2,
													"numoutlets" : 1,
													"outlettype" : [ "" ],
													"patching_rect" : [ 121.0, 176.0, 51.0, 0.0 ],
													"style" : "",
													"text" : "pak set 1"
												}

											}
, 											{
												"box" : 												{
													"fontname" : "Arial",
													"fontsize" : 9.0,
													"id" : "obj-3",
													"maxclass" : "newobj",
													"numinlets" : 1,
													"numoutlets" : 2,
													"outlettype" : [ "bang", "int" ],
													"patching_rect" : [ 96.0, 132.0, 26.0, 0.0 ],
													"style" : "",
													"text" : "t b i"
												}

											}
, 											{
												"box" : 												{
													"fontname" : "Arial",
													"fontsize" : 9.0,
													"id" : "obj-4",
													"maxclass" : "newobj",
													"numinlets" : 3,
													"numoutlets" : 1,
													"outlettype" : [ "" ],
													"patching_rect" : [ 28.0, 174.0, 87.0, 0.0 ],
													"style" : "",
													"text" : "pak set_pos 0. 0."
												}

											}
, 											{
												"box" : 												{
													"fontname" : "Arial",
													"fontsize" : 9.0,
													"id" : "obj-5",
													"maxclass" : "newobj",
													"numinlets" : 2,
													"numoutlets" : 3,
													"outlettype" : [ "bang", "bang", "int" ],
													"patching_rect" : [ 56.0, 102.0, 50.0, 0.0 ],
													"style" : "",
													"text" : "uzi 500"
												}

											}
, 											{
												"box" : 												{
													"fontname" : "Arial",
													"fontsize" : 9.0,
													"id" : "obj-6",
													"maxclass" : "newobj",
													"numinlets" : 1,
													"numoutlets" : 0,
													"patching_rect" : [ 68.0, 210.0, 77.0, 0.0 ],
													"style" : "",
													"text" : "s boidParam2D"
												}

											}
 ],
										"lines" : [ 											{
												"patchline" : 												{
													"destination" : [ "obj-5", 0 ],
													"disabled" : 0,
													"hidden" : 0,
													"source" : [ "obj-1", 0 ]
												}

											}
, 											{
												"patchline" : 												{
													"destination" : [ "obj-6", 0 ],
													"disabled" : 0,
													"hidden" : 0,
													"source" : [ "obj-2", 0 ]
												}

											}
, 											{
												"patchline" : 												{
													"destination" : [ "obj-2", 1 ],
													"disabled" : 0,
													"hidden" : 0,
													"source" : [ "obj-3", 1 ]
												}

											}
, 											{
												"patchline" : 												{
													"destination" : [ "obj-4", 0 ],
													"disabled" : 0,
													"hidden" : 0,
													"source" : [ "obj-3", 0 ]
												}

											}
, 											{
												"patchline" : 												{
													"destination" : [ "obj-6", 0 ],
													"disabled" : 0,
													"hidden" : 0,
													"source" : [ "obj-4", 0 ]
												}

											}
, 											{
												"patchline" : 												{
													"destination" : [ "obj-3", 0 ],
													"disabled" : 0,
													"hidden" : 0,
													"source" : [ "obj-5", 2 ]
												}

											}
 ]
									}
,
									"patching_rect" : [ 305.0, 500.0, 50.0, 19.0 ],
									"saved_object_attributes" : 									{
										"description" : "",
										"digest" : "",
										"globalpatchername" : "",
										"style" : "",
										"tags" : ""
									}
,
									"style" : "",
									"text" : "p sets"
								}

							}
, 							{
								"box" : 								{
									"fontname" : "Arial",
									"fontsize" : 9.0,
									"id" : "obj-2",
									"maxclass" : "comment",
									"numinlets" : 1,
									"numoutlets" : 0,
									"patching_rect" : [ 28.0, 284.0, 221.0, 17.0 ],
									"style" : "",
									"text" : "xray.jit.boidsrender by w. smith 12/14/2005"
								}

							}
, 							{
								"box" : 								{
									"fontname" : "Arial",
									"fontsize" : 9.0,
									"hidden" : 1,
									"id" : "obj-3",
									"maxclass" : "newobj",
									"numinlets" : 4,
									"numoutlets" : 0,
									"patching_rect" : [ 252.0, 462.0, 106.0, 19.0 ],
									"style" : "",
									"text" : "bgcolor 216 218 222"
								}

							}
, 							{
								"box" : 								{
									"fontname" : "Arial",
									"fontsize" : 18.0,
									"id" : "obj-17",
									"maxclass" : "comment",
									"numinlets" : 1,
									"numoutlets" : 0,
									"patching_rect" : [ 152.0, 25.0, 180.0, 27.0 ],
									"style" : "",
									"text" : "xray.jit.boidsrender"
								}

							}
, 							{
								"box" : 								{
									"id" : "obj-18",
									"maxclass" : "toggle",
									"numinlets" : 1,
									"numoutlets" : 1,
									"outlettype" : [ "int" ],
									"parameter_enable" : 0,
									"patching_rect" : [ 108.0, 539.0, 15.0, 15.0 ],
									"style" : ""
								}

							}
, 							{
								"box" : 								{
									"fontname" : "Arial",
									"fontsize" : 9.0,
									"id" : "obj-19",
									"maxclass" : "message",
									"numinlets" : 2,
									"numoutlets" : 1,
									"outlettype" : [ "" ],
									"patching_rect" : [ 108.0, 559.0, 69.0, 19.0 ],
									"style" : "",
									"text" : "normalize $1"
								}

							}
, 							{
								"box" : 								{
									"bgcolor" : [ 0.866667, 0.866667, 0.866667, 1.0 ],
									"fontname" : "Arial",
									"fontsize" : 9.0,
									"format" : 6,
									"id" : "obj-20",
									"maxclass" : "flonum",
									"numinlets" : 1,
									"numoutlets" : 2,
									"outlettype" : [ "", "bang" ],
									"parameter_enable" : 0,
									"patching_rect" : [ 225.0, 540.0, 35.0, 19.0 ],
									"style" : "",
									"textcolor" : [ 0.0, 0.0, 0.0, 1.0 ],
									"triscale" : 0.9
								}

							}
, 							{
								"box" : 								{
									"fontname" : "Arial",
									"fontsize" : 9.0,
									"id" : "obj-21",
									"maxclass" : "newobj",
									"numinlets" : 3,
									"numoutlets" : 1,
									"outlettype" : [ "" ],
									"patching_rect" : [ 181.0, 559.0, 75.0, 19.0 ],
									"style" : "",
									"text" : "pak scale 0. 0."
								}

							}
, 							{
								"box" : 								{
									"color" : [ 1.0, 0.890196, 0.090196, 1.0 ],
									"fontname" : "Arial",
									"fontsize" : 9.0,
									"id" : "obj-22",
									"maxclass" : "newobj",
									"numinlets" : 1,
									"numoutlets" : 3,
									"outlettype" : [ "jit_matrix", "jit_matrix", "" ],
									"patching_rect" : [ 28.0, 585.0, 248.0, 19.0 ],
									"style" : "",
									"text" : "xray.jit.boidsrender @scale 0.01 0.05 @normalize 1"
								}

							}
, 							{
								"box" : 								{
									"bgcolor" : [ 0.866667, 0.866667, 0.866667, 1.0 ],
									"fontname" : "Arial",
									"fontsize" : 9.0,
									"format" : 6,
									"id" : "obj-23",
									"maxclass" : "flonum",
									"numinlets" : 1,
									"numoutlets" : 2,
									"outlettype" : [ "", "bang" ],
									"parameter_enable" : 0,
									"patching_rect" : [ 187.0, 540.0, 35.0, 19.0 ],
									"style" : "",
									"textcolor" : [ 0.0, 0.0, 0.0, 1.0 ],
									"triscale" : 0.9
								}

							}
, 							{
								"box" : 								{
									"fontname" : "Arial",
									"fontsize" : 9.0,
									"id" : "obj-24",
									"maxclass" : "comment",
									"numinlets" : 1,
									"numoutlets" : 0,
									"patching_rect" : [ 28.0, 92.0, 184.0, 17.0 ],
									"style" : "",
									"text" : "jitter adaptation 12/2005 by w. smith"
								}

							}
, 							{
								"box" : 								{
									"fontname" : "Arial",
									"fontsize" : 9.0,
									"id" : "obj-25",
									"maxclass" : "newobj",
									"numinlets" : 9,
									"numoutlets" : 2,
									"outlettype" : [ "jit_matrix", "" ],
									"patching_rect" : [ 28.0, 615.0, 397.0, 19.0 ],
									"style" : "",
									"text" : "jit.gl.mesh boids @draw_mode quads @color 1 0 0 0.3 @point_size 3 @blend_enable 1"
								}

							}
, 							{
								"box" : 								{
									"id" : "obj-26",
									"maxclass" : "toggle",
									"numinlets" : 1,
									"numoutlets" : 1,
									"outlettype" : [ "int" ],
									"parameter_enable" : 0,
									"patching_rect" : [ 127.0, 328.0, 15.0, 15.0 ],
									"style" : ""
								}

							}
, 							{
								"box" : 								{
									"fontname" : "Arial",
									"fontsize" : 9.0,
									"id" : "obj-27",
									"maxclass" : "message",
									"numinlets" : 2,
									"numoutlets" : 1,
									"outlettype" : [ "" ],
									"patching_rect" : [ 127.0, 348.0, 68.0, 19.0 ],
									"style" : "",
									"text" : "fullscreen $1"
								}

							}
, 							{
								"box" : 								{
									"fontname" : "Arial",
									"fontsize" : 9.0,
									"id" : "obj-28",
									"maxclass" : "newobj",
									"numinlets" : 0,
									"numoutlets" : 1,
									"outlettype" : [ "bang" ],
									"patcher" : 									{
										"fileversion" : 1,
										"appversion" : 										{
											"major" : 7,
											"minor" : 2,
											"revision" : 3,
											"architecture" : "x86",
											"modernui" : 1
										}
,
										"rect" : [ 30.0, 89.0, 136.0, 164.0 ],
										"bglocked" : 0,
										"openinpresentation" : 0,
										"default_fontsize" : 12.0,
										"default_fontface" : 0,
										"default_fontname" : "Arial",
										"gridonopen" : 1,
										"gridsize" : [ 15.0, 15.0 ],
										"gridsnaponopen" : 1,
										"objectsnaponopen" : 1,
										"statusbarvisible" : 2,
										"toolbarvisible" : 1,
										"lefttoolbarpinned" : 0,
										"toptoolbarpinned" : 0,
										"righttoolbarpinned" : 0,
										"bottomtoolbarpinned" : 0,
										"toolbars_unpinned_last_save" : 0,
										"tallnewobj" : 0,
										"boxanimatetime" : 200,
										"enablehscroll" : 1,
										"enablevscroll" : 1,
										"devicewidth" : 0.0,
										"description" : "",
										"digest" : "",
										"tags" : "",
										"style" : "",
										"subpatcher_template" : "",
										"boxes" : [ 											{
												"box" : 												{
													"fontname" : "Arial",
													"fontsize" : 9.0,
													"id" : "obj-1",
													"maxclass" : "newobj",
													"numinlets" : 2,
													"numoutlets" : 2,
													"outlettype" : [ "bang", "" ],
													"patching_rect" : [ 50.0, 71.0, 35.0, 0.0 ],
													"style" : "",
													"text" : "sel 27"
												}

											}
, 											{
												"box" : 												{
													"fontname" : "Arial",
													"fontsize" : 9.0,
													"id" : "obj-2",
													"maxclass" : "newobj",
													"numinlets" : 0,
													"numoutlets" : 4,
													"outlettype" : [ "int", "int", "int", "int" ],
													"patching_rect" : [ 50.0, 50.0, 40.0, 0.0 ],
													"style" : "",
													"text" : "key"
												}

											}
, 											{
												"box" : 												{
													"comment" : "",
													"id" : "obj-3",
													"maxclass" : "outlet",
													"numinlets" : 1,
													"numoutlets" : 0,
													"patching_rect" : [ 50.0, 93.0, 15.0, 15.0 ],
													"style" : ""
												}

											}
 ],
										"lines" : [ 											{
												"patchline" : 												{
													"destination" : [ "obj-3", 0 ],
													"disabled" : 0,
													"hidden" : 0,
													"source" : [ "obj-1", 0 ]
												}

											}
, 											{
												"patchline" : 												{
													"destination" : [ "obj-1", 0 ],
													"disabled" : 0,
													"hidden" : 0,
													"source" : [ "obj-2", 0 ]
												}

											}
 ]
									}
,
									"patching_rect" : [ 127.0, 308.0, 33.0, 19.0 ],
									"saved_object_attributes" : 									{
										"description" : "",
										"digest" : "",
										"globalpatchername" : "",
										"style" : "",
										"tags" : ""
									}
,
									"style" : "",
									"text" : "p Esc"
								}

							}
, 							{
								"box" : 								{
									"fontname" : "Arial",
									"fontsize" : 9.0,
									"id" : "obj-29",
									"maxclass" : "newobj",
									"numinlets" : 1,
									"numoutlets" : 1,
									"outlettype" : [ "bang" ],
									"patching_rect" : [ 25.0, 326.0, 48.0, 19.0 ],
									"style" : "",
									"text" : "loadbang"
								}

							}
, 							{
								"box" : 								{
									"fontname" : "Arial",
									"fontsize" : 9.0,
									"id" : "obj-30",
									"maxclass" : "newobj",
									"numinlets" : 1,
									"numoutlets" : 2,
									"outlettype" : [ "bang", "" ],
									"patching_rect" : [ 127.0, 366.0, 156.0, 19.0 ],
									"style" : "",
									"text" : "jit.window boids @depthbuffer 1"
								}

							}
, 							{
								"box" : 								{
									"fontname" : "Arial",
									"fontsize" : 9.0,
									"id" : "obj-31",
									"maxclass" : "message",
									"numinlets" : 2,
									"numoutlets" : 1,
									"outlettype" : [ "" ],
									"patching_rect" : [ 88.0, 366.0, 34.0, 19.0 ],
									"style" : "",
									"text" : "reset"
								}

							}
, 							{
								"box" : 								{
									"fontname" : "Arial",
									"fontsize" : 9.0,
									"id" : "obj-32",
									"maxclass" : "newobj",
									"numinlets" : 1,
									"numoutlets" : 2,
									"outlettype" : [ "", "" ],
									"patching_rect" : [ 88.0, 387.0, 191.0, 19.0 ],
									"style" : "",
									"text" : "jit.gl.handle boids @inherit_transform 1"
								}

							}
, 							{
								"box" : 								{
									"id" : "obj-33",
									"maxclass" : "toggle",
									"numinlets" : 1,
									"numoutlets" : 1,
									"outlettype" : [ "int" ],
									"parameter_enable" : 0,
									"patching_rect" : [ 25.0, 347.0, 15.0, 15.0 ],
									"style" : ""
								}

							}
, 							{
								"box" : 								{
									"fontname" : "Arial",
									"fontsize" : 9.0,
									"id" : "obj-34",
									"maxclass" : "newobj",
									"numinlets" : 2,
									"numoutlets" : 1,
									"outlettype" : [ "bang" ],
									"patching_rect" : [ 25.0, 366.0, 57.0, 19.0 ],
									"style" : "",
									"text" : "qmetro 60"
								}

							}
, 							{
								"box" : 								{
									"fontname" : "Arial",
									"fontsize" : 9.0,
									"id" : "obj-35",
									"maxclass" : "newobj",
									"numinlets" : 1,
									"numoutlets" : 2,
									"outlettype" : [ "bang", "erase" ],
									"patching_rect" : [ 25.0, 387.0, 50.0, 19.0 ],
									"style" : "",
									"text" : "t b erase"
								}

							}
, 							{
								"box" : 								{
									"fontname" : "Arial",
									"fontsize" : 9.0,
									"id" : "obj-36",
									"maxclass" : "newobj",
									"numinlets" : 1,
									"numoutlets" : 2,
									"outlettype" : [ "bang", "" ],
									"patching_rect" : [ 25.0, 412.0, 292.0, 19.0 ],
									"style" : "",
									"text" : "jit.gl.render boids @camera 0 0 4 @erase_color 0 0 0 0.051"
								}

							}
, 							{
								"box" : 								{
									"color" : [ 1.0, 0.890196, 0.090196, 1.0 ],
									"fontname" : "Arial",
									"fontsize" : 9.0,
									"id" : "obj-37",
									"maxclass" : "newobj",
									"numinlets" : 1,
									"numoutlets" : 2,
									"outlettype" : [ "jit_matrix", "" ],
									"patching_rect" : [ 28.0, 542.0, 58.0, 19.0 ],
									"style" : "",
									"text" : "jit.boids2d"
								}

							}
, 							{
								"box" : 								{
									"fontname" : "Arial",
									"fontsize" : 9.0,
									"id" : "obj-38",
									"maxclass" : "newobj",
									"numinlets" : 0,
									"numoutlets" : 1,
									"outlettype" : [ "" ],
									"patching_rect" : [ 88.0, 514.0, 77.0, 19.0 ],
									"style" : "",
									"text" : "r boidParam2D",
									"varname" : "receive"
								}

							}
, 							{
								"box" : 								{
									"fontname" : "Arial",
									"fontsize" : 9.0,
									"id" : "obj-39",
									"maxclass" : "newobj",
									"numinlets" : 2,
									"numoutlets" : 1,
									"outlettype" : [ "bang" ],
									"patching_rect" : [ 28.0, 514.0, 57.0, 19.0 ],
									"style" : "",
									"text" : "qmetro 33"
								}

							}
, 							{
								"box" : 								{
									"fontname" : "Arial",
									"fontsize" : 9.0,
									"id" : "obj-40",
									"maxclass" : "comment",
									"numinlets" : 1,
									"numoutlets" : 0,
									"patching_rect" : [ 48.0, 496.0, 128.0, 17.0 ],
									"style" : "",
									"text" : "<- Click to run simulation"
								}

							}
, 							{
								"box" : 								{
									"id" : "obj-41",
									"maxclass" : "toggle",
									"numinlets" : 1,
									"numoutlets" : 1,
									"outlettype" : [ "int" ],
									"parameter_enable" : 0,
									"patching_rect" : [ 28.0, 494.0, 15.0, 15.0 ],
									"style" : "",
									"varname" : "toggle"
								}

							}
, 							{
								"box" : 								{
									"fontname" : "Arial",
									"fontsize" : 9.0,
									"hidden" : 1,
									"id" : "obj-42",
									"maxclass" : "newobj",
									"numinlets" : 1,
									"numoutlets" : 2,
									"outlettype" : [ "float", "float" ],
									"patching_rect" : [ 769.0, 319.0, 64.0, 19.0 ],
									"style" : "",
									"text" : "unpack 0. 0."
								}

							}
, 							{
								"box" : 								{
									"fontname" : "Arial",
									"fontsize" : 9.0,
									"hidden" : 1,
									"id" : "obj-43",
									"maxclass" : "newobj",
									"numinlets" : 0,
									"numoutlets" : 1,
									"outlettype" : [ "" ],
									"patching_rect" : [ 769.0, 299.0, 63.0, 19.0 ],
									"style" : "",
									"text" : "r updAttrPt",
									"varname" : "receive[2]"
								}

							}
, 							{
								"box" : 								{
									"fontname" : "Arial",
									"fontsize" : 9.0,
									"id" : "obj-44",
									"maxclass" : "comment",
									"numinlets" : 1,
									"numoutlets" : 0,
									"patching_rect" : [ 455.0, 423.0, 186.0, 17.0 ],
									"style" : "",
									"text" : "reset boids randomly inside the flyrect"
								}

							}
, 							{
								"box" : 								{
									"fontname" : "Arial",
									"fontsize" : 9.0,
									"id" : "obj-45",
									"maxclass" : "comment",
									"numinlets" : 1,
									"numoutlets" : 0,
									"patching_rect" : [ 522.0, 397.0, 64.0, 17.0 ],
									"style" : "",
									"text" : "output mode"
								}

							}
, 							{
								"box" : 								{
									"fontname" : "Arial",
									"fontsize" : 9.0,
									"id" : "obj-46",
									"maxclass" : "comment",
									"numinlets" : 1,
									"numoutlets" : 0,
									"patching_rect" : [ 522.0, 379.0, 81.0, 17.0 ],
									"style" : "",
									"text" : "number of boids"
								}

							}
, 							{
								"box" : 								{
									"fontname" : "Verdana",
									"fontsize" : 9.0,
									"id" : "obj-47",
									"items" : [ "new(xy)", ",", "new(xy)/old(xy)", ",", "new(xy)/old(xy)/speed/azi" ],
									"maxclass" : "umenu",
									"numinlets" : 1,
									"numoutlets" : 3,
									"outlettype" : [ "int", "", "" ],
									"parameter_enable" : 0,
									"patching_rect" : [ 415.0, 396.0, 58.0, 19.0 ],
									"style" : "",
									"varname" : "ubumenu"
								}

							}
, 							{
								"box" : 								{
									"fontname" : "Arial",
									"fontsize" : 9.0,
									"id" : "obj-48",
									"maxclass" : "message",
									"numinlets" : 2,
									"numoutlets" : 1,
									"outlettype" : [ "" ],
									"patching_rect" : [ 415.0, 422.0, 35.0, 19.0 ],
									"style" : "",
									"text" : "reset"
								}

							}
, 							{
								"box" : 								{
									"fontname" : "Arial",
									"fontsize" : 9.0,
									"id" : "obj-49",
									"maxclass" : "message",
									"numinlets" : 2,
									"numoutlets" : 1,
									"outlettype" : [ "" ],
									"patching_rect" : [ 472.0, 396.0, 44.0, 19.0 ],
									"style" : "",
									"text" : "mode $1"
								}

							}
, 							{
								"box" : 								{
									"bgcolor" : [ 0.866667, 0.866667, 0.866667, 1.0 ],
									"fontname" : "Arial",
									"fontsize" : 9.0,
									"id" : "obj-50",
									"maxclass" : "number",
									"minimum" : 1,
									"numinlets" : 1,
									"numoutlets" : 2,
									"outlettype" : [ "", "bang" ],
									"parameter_enable" : 0,
									"patching_rect" : [ 415.0, 378.0, 35.0, 19.0 ],
									"style" : "",
									"textcolor" : [ 0.0, 0.0, 0.0, 1.0 ],
									"triscale" : 0.9,
									"varname" : "number[1]"
								}

							}
, 							{
								"box" : 								{
									"fontname" : "Arial",
									"fontsize" : 9.0,
									"id" : "obj-51",
									"maxclass" : "message",
									"numinlets" : 2,
									"numoutlets" : 1,
									"outlettype" : [ "" ],
									"patching_rect" : [ 449.0, 378.0, 67.0, 19.0 ],
									"style" : "",
									"text" : "number $1"
								}

							}
, 							{
								"box" : 								{
									"bgcolor" : [ 0.866667, 0.866667, 0.866667, 1.0 ],
									"fontname" : "Arial",
									"fontsize" : 9.0,
									"format" : 6,
									"id" : "obj-52",
									"maxclass" : "flonum",
									"numinlets" : 1,
									"numoutlets" : 2,
									"outlettype" : [ "", "bang" ],
									"parameter_enable" : 0,
									"patching_rect" : [ 517.0, 306.0, 35.0, 19.0 ],
									"style" : "",
									"textcolor" : [ 0.0, 0.0, 0.0, 1.0 ],
									"triscale" : 0.9,
									"varname" : "flonum[20]"
								}

							}
, 							{
								"box" : 								{
									"bgcolor" : [ 0.866667, 0.866667, 0.866667, 1.0 ],
									"fontname" : "Arial",
									"fontsize" : 9.0,
									"format" : 6,
									"id" : "obj-53",
									"maxclass" : "flonum",
									"numinlets" : 1,
									"numoutlets" : 2,
									"outlettype" : [ "", "bang" ],
									"parameter_enable" : 0,
									"patching_rect" : [ 483.0, 306.0, 35.0, 19.0 ],
									"style" : "",
									"textcolor" : [ 0.0, 0.0, 0.0, 1.0 ],
									"triscale" : 0.9,
									"varname" : "flonum[19]"
								}

							}
, 							{
								"box" : 								{
									"bgcolor" : [ 0.866667, 0.866667, 0.866667, 1.0 ],
									"fontname" : "Arial",
									"fontsize" : 9.0,
									"format" : 6,
									"id" : "obj-54",
									"maxclass" : "flonum",
									"numinlets" : 1,
									"numoutlets" : 2,
									"outlettype" : [ "", "bang" ],
									"parameter_enable" : 0,
									"patching_rect" : [ 449.0, 306.0, 35.0, 19.0 ],
									"style" : "",
									"textcolor" : [ 0.0, 0.0, 0.0, 1.0 ],
									"triscale" : 0.9,
									"varname" : "flonum[18]"
								}

							}
, 							{
								"box" : 								{
									"fontname" : "Arial",
									"fontsize" : 9.0,
									"id" : "obj-55",
									"maxclass" : "comment",
									"numinlets" : 1,
									"numoutlets" : 0,
									"patching_rect" : [ 28.0, 78.0, 197.0, 17.0 ],
									"style" : "",
									"text" : "3d adaptation 08/2005 by a. sier / jasch"
								}

							}
, 							{
								"box" : 								{
									"hidden" : 1,
									"id" : "obj-56",
									"maxclass" : "button",
									"numinlets" : 1,
									"numoutlets" : 1,
									"outlettype" : [ "bang" ],
									"patching_rect" : [ 449.0, 56.0, 15.0, 15.0 ],
									"style" : ""
								}

							}
, 							{
								"box" : 								{
									"fontname" : "Arial",
									"fontsize" : 9.0,
									"hidden" : 1,
									"id" : "obj-57",
									"maxclass" : "newobj",
									"numinlets" : 1,
									"numoutlets" : 4,
									"outlettype" : [ "", "", "", "" ],
									"patching_rect" : [ 612.0, 399.0, 114.0, 19.0 ],
									"restore" : 									{
										"flonum[10]" : [ 3.6 ],
										"flonum[11]" : [ 10.0 ],
										"flonum[12]" : [ 1.0 ],
										"flonum[13]" : [ -1.0 ],
										"flonum[14]" : [ 0.0 ],
										"flonum[15]" : [ -0.13 ],
										"flonum[17]" : [ 1.6 ],
										"flonum[18]" : [ 1.0 ],
										"flonum[19]" : [ 1.0 ],
										"flonum[1]" : [ 3.59 ],
										"flonum[20]" : [ -1.0 ],
										"flonum[2]" : [ 2.82 ],
										"flonum[3]" : [ 2.59 ],
										"flonum[4]" : [ 0.73 ],
										"flonum[5]" : [ 1.7 ],
										"flonum[6]" : [ 0.39 ],
										"flonum[7]" : [ 2.0 ],
										"flonum[8]" : [ 3.0 ],
										"flonum[9]" : [ 0.62 ],
										"number[1]" : [ 499 ],
										"toggle" : [ 1 ],
										"ubumenu" : [ 1 ]
									}
,
									"style" : "",
									"text" : "autopattr @autoname 0",
									"varname" : "u358003144"
								}

							}
, 							{
								"box" : 								{
									"fontname" : "Arial",
									"fontsize" : 9.0,
									"hidden" : 1,
									"id" : "obj-58",
									"maxclass" : "newobj",
									"numinlets" : 1,
									"numoutlets" : 1,
									"outlettype" : [ "" ],
									"patching_rect" : [ 612.0, 378.0, 67.0, 19.0 ],
									"saved_object_attributes" : 									{
										"client_rect" : [ 4, 44, 358, 172 ],
										"parameter_enable" : 0,
										"storage_rect" : [ 583, 69, 1034, 197 ]
									}
,
									"style" : "",
									"text" : "pattrstorage",
									"varname" : "u647003122"
								}

							}
, 							{
								"box" : 								{
									"bgcolor" : [ 0.866667, 0.866667, 0.866667, 1.0 ],
									"fontname" : "Arial",
									"fontsize" : 9.0,
									"format" : 6,
									"id" : "obj-59",
									"maxclass" : "flonum",
									"numinlets" : 1,
									"numoutlets" : 2,
									"outlettype" : [ "", "bang" ],
									"parameter_enable" : 0,
									"patching_rect" : [ 449.0, 342.0, 35.0, 19.0 ],
									"style" : "",
									"textcolor" : [ 0.0, 0.0, 0.0, 1.0 ],
									"triscale" : 0.9,
									"varname" : "flonum[15]"
								}

							}
, 							{
								"box" : 								{
									"bgcolor" : [ 0.866667, 0.866667, 0.866667, 1.0 ],
									"fontname" : "Arial",
									"fontsize" : 9.0,
									"format" : 6,
									"id" : "obj-60",
									"maxclass" : "flonum",
									"numinlets" : 1,
									"numoutlets" : 2,
									"outlettype" : [ "", "bang" ],
									"parameter_enable" : 0,
									"patching_rect" : [ 415.0, 342.0, 35.0, 19.0 ],
									"style" : "",
									"textcolor" : [ 0.0, 0.0, 0.0, 1.0 ],
									"triscale" : 0.9,
									"varname" : "flonum[14]"
								}

							}
, 							{
								"box" : 								{
									"bgcolor" : [ 0.866667, 0.866667, 0.866667, 1.0 ],
									"fontname" : "Arial",
									"fontsize" : 9.0,
									"format" : 6,
									"id" : "obj-61",
									"maxclass" : "flonum",
									"numinlets" : 1,
									"numoutlets" : 2,
									"outlettype" : [ "", "bang" ],
									"parameter_enable" : 0,
									"patching_rect" : [ 415.0, 306.0, 35.0, 19.0 ],
									"style" : "",
									"textcolor" : [ 0.0, 0.0, 0.0, 1.0 ],
									"triscale" : 0.9,
									"varname" : "flonum[13]"
								}

							}
, 							{
								"box" : 								{
									"fontname" : "Arial",
									"fontsize" : 9.0,
									"id" : "obj-62",
									"maxclass" : "newobj",
									"numinlets" : 3,
									"numoutlets" : 1,
									"outlettype" : [ "" ],
									"patching_rect" : [ 415.0, 358.0, 93.0, 19.0 ],
									"style" : "",
									"text" : "pak attractpt 0. 0."
								}

							}
, 							{
								"box" : 								{
									"fontname" : "Arial",
									"fontsize" : 9.0,
									"id" : "obj-63",
									"maxclass" : "newobj",
									"numinlets" : 5,
									"numoutlets" : 1,
									"outlettype" : [ "" ],
									"patching_rect" : [ 415.0, 322.0, 108.0, 19.0 ],
									"style" : "",
									"text" : "pak flyrect 0. 0. 0. 0."
								}

							}
, 							{
								"box" : 								{
									"fontname" : "Arial",
									"fontsize" : 9.0,
									"id" : "obj-64",
									"linecount" : 2,
									"maxclass" : "comment",
									"numinlets" : 1,
									"numoutlets" : 0,
									"patching_rect" : [ 522.0, 343.0, 159.0, 27.0 ],
									"style" : "",
									"text" : "point to which boids are attracted (x/y)"
								}

							}
, 							{
								"box" : 								{
									"fontname" : "Arial",
									"fontsize" : 9.0,
									"id" : "obj-65",
									"linecount" : 2,
									"maxclass" : "comment",
									"numinlets" : 1,
									"numoutlets" : 0,
									"patching_rect" : [ 625.0, 306.0, 173.0, 27.0 ],
									"style" : "",
									"text" : "bounding box (walls) in which to fly (left/top/right/bottom/front/back)"
								}

							}
, 							{
								"box" : 								{
									"fontname" : "Arial",
									"fontsize" : 9.0,
									"id" : "obj-66",
									"maxclass" : "comment",
									"numinlets" : 1,
									"numoutlets" : 0,
									"patching_rect" : [ 522.0, 289.0, 165.0, 17.0 ],
									"style" : "",
									"text" : "preferred distance from neighbors"
								}

							}
, 							{
								"box" : 								{
									"fontname" : "Arial",
									"fontsize" : 9.0,
									"id" : "obj-67",
									"maxclass" : "comment",
									"numinlets" : 1,
									"numoutlets" : 0,
									"patching_rect" : [ 522.0, 271.0, 105.0, 17.0 ],
									"style" : "",
									"text" : "speed of acceleration"
								}

							}
, 							{
								"box" : 								{
									"fontname" : "Arial",
									"fontsize" : 9.0,
									"id" : "obj-68",
									"maxclass" : "comment",
									"numinlets" : 1,
									"numoutlets" : 0,
									"patching_rect" : [ 522.0, 253.0, 194.0, 17.0 ],
									"style" : "",
									"text" : "willingness to change speed and direction"
								}

							}
, 							{
								"box" : 								{
									"fontname" : "Arial",
									"fontsize" : 9.0,
									"id" : "obj-69",
									"maxclass" : "comment",
									"numinlets" : 1,
									"numoutlets" : 0,
									"patching_rect" : [ 522.0, 235.0, 70.0, 17.0 ],
									"style" : "",
									"text" : "overall speed"
								}

							}
, 							{
								"box" : 								{
									"fontname" : "Arial",
									"fontsize" : 9.0,
									"id" : "obj-70",
									"maxclass" : "comment",
									"numinlets" : 1,
									"numoutlets" : 0,
									"patching_rect" : [ 522.0, 217.0, 196.0, 17.0 ],
									"style" : "",
									"text" : "distance of vision for avoiding wall edges"
								}

							}
, 							{
								"box" : 								{
									"fontname" : "Arial",
									"fontsize" : 9.0,
									"id" : "obj-71",
									"maxclass" : "comment",
									"numinlets" : 1,
									"numoutlets" : 0,
									"patching_rect" : [ 522.0, 199.0, 162.0, 17.0 ],
									"style" : "",
									"text" : "strengh of wall avoidance instinct"
								}

							}
, 							{
								"box" : 								{
									"fontname" : "Arial",
									"fontsize" : 9.0,
									"id" : "obj-72",
									"maxclass" : "comment",
									"numinlets" : 1,
									"numoutlets" : 0,
									"patching_rect" : [ 522.0, 181.0, 185.0, 17.0 ],
									"style" : "",
									"text" : "strength of neighbor avoidance instinct"
								}

							}
, 							{
								"box" : 								{
									"fontname" : "Arial",
									"fontsize" : 9.0,
									"id" : "obj-73",
									"maxclass" : "comment",
									"numinlets" : 1,
									"numoutlets" : 0,
									"patching_rect" : [ 522.0, 163.0, 209.0, 17.0 ],
									"style" : "",
									"text" : "strength of neighbor speed matching instinct"
								}

							}
, 							{
								"box" : 								{
									"fontname" : "Arial",
									"fontsize" : 9.0,
									"id" : "obj-74",
									"maxclass" : "comment",
									"numinlets" : 1,
									"numoutlets" : 0,
									"patching_rect" : [ 522.0, 145.0, 170.0, 17.0 ],
									"style" : "",
									"text" : "strength of attraction to 'attractpt'"
								}

							}
, 							{
								"box" : 								{
									"fontname" : "Arial",
									"fontsize" : 9.0,
									"id" : "obj-75",
									"maxclass" : "comment",
									"numinlets" : 1,
									"numoutlets" : 0,
									"patching_rect" : [ 522.0, 127.0, 142.0, 17.0 ],
									"style" : "",
									"text" : "strength of centering instinct"
								}

							}
, 							{
								"box" : 								{
									"fontname" : "Arial",
									"fontsize" : 9.0,
									"id" : "obj-76",
									"maxclass" : "comment",
									"numinlets" : 1,
									"numoutlets" : 0,
									"patching_rect" : [ 522.0, 109.0, 149.0, 17.0 ],
									"style" : "",
									"text" : "maximum speed of speed range"
								}

							}
, 							{
								"box" : 								{
									"fontname" : "Arial",
									"fontsize" : 9.0,
									"id" : "obj-77",
									"maxclass" : "comment",
									"numinlets" : 1,
									"numoutlets" : 0,
									"patching_rect" : [ 522.0, 91.0, 146.0, 17.0 ],
									"style" : "",
									"text" : "minimum speed of speed range"
								}

							}
, 							{
								"box" : 								{
									"fontname" : "Arial",
									"fontsize" : 9.0,
									"id" : "obj-78",
									"maxclass" : "comment",
									"numinlets" : 1,
									"numoutlets" : 0,
									"patching_rect" : [ 522.0, 73.0, 249.0, 17.0 ],
									"style" : "",
									"text" : "number of neighbors each boid consults when flocking"
								}

							}
, 							{
								"box" : 								{
									"fontname" : "Arial",
									"fontsize" : 9.0,
									"id" : "obj-79",
									"maxclass" : "comment",
									"numinlets" : 1,
									"numoutlets" : 0,
									"patching_rect" : [ 28.0, 63.0, 239.0, 17.0 ],
									"style" : "",
									"text" : "© 1995-98 Eric L. Singer (eric@ericsinger.com)"
								}

							}
, 							{
								"box" : 								{
									"fontname" : "Arial",
									"fontsize" : 18.0,
									"id" : "obj-80",
									"maxclass" : "comment",
									"numinlets" : 1,
									"numoutlets" : 0,
									"patching_rect" : [ 43.0, 25.0, 98.0, 27.0 ],
									"style" : "",
									"text" : "jit.boids2d"
								}

							}
, 							{
								"box" : 								{
									"fontname" : "Arial",
									"fontsize" : 9.0,
									"id" : "obj-81",
									"linecount" : 2,
									"maxclass" : "comment",
									"numinlets" : 1,
									"numoutlets" : 0,
									"patching_rect" : [ 28.0, 110.0, 276.0, 27.0 ],
									"style" : "",
									"text" : "Based on Simon Fraser's implementation of Craig Reynolds' Boids algorithm. Boids is free for non-commercial use"
								}

							}
, 							{
								"box" : 								{
									"fontname" : "Arial",
									"fontsize" : 9.0,
									"id" : "obj-82",
									"linecount" : 2,
									"maxclass" : "comment",
									"numinlets" : 1,
									"numoutlets" : 0,
									"patching_rect" : [ 28.0, 221.0, 325.0, 27.0 ],
									"style" : "",
									"text" : "The flight parameters can be changed with messages. Use the 'dump' message to output a list of the current parameter settings."
								}

							}
, 							{
								"box" : 								{
									"fontname" : "Arial",
									"fontsize" : 9.0,
									"id" : "obj-83",
									"linecount" : 4,
									"maxclass" : "comment",
									"numinlets" : 1,
									"numoutlets" : 0,
									"patching_rect" : [ 28.0, 168.0, 327.0, 47.0 ],
									"style" : "",
									"text" : "Boids takes an integer argument which is the number of boids. Each time Boids receives a bang, it calculates and outputs the new positions of the boids. The output consists of thew coordiantes for each boid, the number and type depending on the mode."
								}

							}
, 							{
								"box" : 								{
									"fontname" : "Arial",
									"fontsize" : 9.0,
									"id" : "obj-84",
									"linecount" : 2,
									"maxclass" : "comment",
									"numinlets" : 1,
									"numoutlets" : 0,
									"patching_rect" : [ 28.0, 140.0, 325.0, 27.0 ],
									"style" : "",
									"text" : "Boids is a bird flight and animal flock simulator. It is based on the same algorithm which was used in Jurassic Park for the herding dinosaurs."
								}

							}
, 							{
								"box" : 								{
									"fontname" : "Arial",
									"fontsize" : 9.0,
									"id" : "obj-85",
									"maxclass" : "message",
									"numinlets" : 2,
									"numoutlets" : 1,
									"outlettype" : [ "" ],
									"patching_rect" : [ 449.0, 288.0, 67.0, 19.0 ],
									"style" : "",
									"text" : "prefdist $1"
								}

							}
, 							{
								"box" : 								{
									"bgcolor" : [ 0.866667, 0.866667, 0.866667, 1.0 ],
									"fontname" : "Arial",
									"fontsize" : 9.0,
									"format" : 6,
									"id" : "obj-86",
									"maxclass" : "flonum",
									"minimum" : 0.0,
									"numinlets" : 1,
									"numoutlets" : 2,
									"outlettype" : [ "", "bang" ],
									"parameter_enable" : 0,
									"patching_rect" : [ 415.0, 288.0, 35.0, 19.0 ],
									"style" : "",
									"textcolor" : [ 0.0, 0.0, 0.0, 1.0 ],
									"triscale" : 0.9,
									"varname" : "flonum[12]"
								}

							}
, 							{
								"box" : 								{
									"fontname" : "Arial",
									"fontsize" : 9.0,
									"id" : "obj-87",
									"maxclass" : "message",
									"numinlets" : 2,
									"numoutlets" : 1,
									"outlettype" : [ "" ],
									"patching_rect" : [ 449.0, 234.0, 67.0, 19.0 ],
									"style" : "",
									"text" : "speed $1"
								}

							}
, 							{
								"box" : 								{
									"bgcolor" : [ 0.866667, 0.866667, 0.866667, 1.0 ],
									"fontname" : "Arial",
									"fontsize" : 9.0,
									"format" : 6,
									"id" : "obj-88",
									"maxclass" : "flonum",
									"minimum" : 0.0,
									"numinlets" : 1,
									"numoutlets" : 2,
									"outlettype" : [ "", "bang" ],
									"parameter_enable" : 0,
									"patching_rect" : [ 415.0, 234.0, 35.0, 19.0 ],
									"style" : "",
									"textcolor" : [ 0.0, 0.0, 0.0, 1.0 ],
									"triscale" : 0.9,
									"varname" : "flonum[11]"
								}

							}
, 							{
								"box" : 								{
									"fontname" : "Arial",
									"fontsize" : 9.0,
									"id" : "obj-89",
									"maxclass" : "message",
									"numinlets" : 2,
									"numoutlets" : 1,
									"outlettype" : [ "" ],
									"patching_rect" : [ 449.0, 180.0, 67.0, 19.0 ],
									"style" : "",
									"text" : "avoid $1"
								}

							}
, 							{
								"box" : 								{
									"bgcolor" : [ 0.866667, 0.866667, 0.866667, 1.0 ],
									"fontname" : "Arial",
									"fontsize" : 9.0,
									"format" : 6,
									"id" : "obj-90",
									"maxclass" : "flonum",
									"minimum" : 0.0,
									"numinlets" : 1,
									"numoutlets" : 2,
									"outlettype" : [ "", "bang" ],
									"parameter_enable" : 0,
									"patching_rect" : [ 415.0, 180.0, 35.0, 19.0 ],
									"style" : "",
									"textcolor" : [ 0.0, 0.0, 0.0, 1.0 ],
									"triscale" : 0.9,
									"varname" : "flonum[10]"
								}

							}
, 							{
								"box" : 								{
									"bgcolor" : [ 0.866667, 0.866667, 0.866667, 1.0 ],
									"fontname" : "Arial",
									"fontsize" : 9.0,
									"format" : 6,
									"id" : "obj-91",
									"maxclass" : "flonum",
									"minimum" : 0.0,
									"numinlets" : 1,
									"numoutlets" : 2,
									"outlettype" : [ "", "bang" ],
									"parameter_enable" : 0,
									"patching_rect" : [ 415.0, 126.0, 35.0, 19.0 ],
									"style" : "",
									"textcolor" : [ 0.0, 0.0, 0.0, 1.0 ],
									"triscale" : 0.9,
									"varname" : "flonum[9]"
								}

							}
, 							{
								"box" : 								{
									"fontname" : "Arial",
									"fontsize" : 9.0,
									"id" : "obj-92",
									"maxclass" : "message",
									"numinlets" : 2,
									"numoutlets" : 1,
									"outlettype" : [ "" ],
									"patching_rect" : [ 449.0, 126.0, 67.0, 19.0 ],
									"style" : "",
									"text" : "center $1"
								}

							}
, 							{
								"box" : 								{
									"bgcolor" : [ 0.866667, 0.866667, 0.866667, 1.0 ],
									"fontname" : "Arial",
									"fontsize" : 9.0,
									"format" : 6,
									"id" : "obj-93",
									"maxclass" : "flonum",
									"maximum" : 4.0,
									"minimum" : 1.0,
									"numinlets" : 1,
									"numoutlets" : 2,
									"outlettype" : [ "", "bang" ],
									"parameter_enable" : 0,
									"patching_rect" : [ 415.0, 72.0, 35.0, 19.0 ],
									"style" : "",
									"textcolor" : [ 0.0, 0.0, 0.0, 1.0 ],
									"triscale" : 0.9,
									"varname" : "flonum[8]"
								}

							}
, 							{
								"box" : 								{
									"fontname" : "Arial",
									"fontsize" : 9.0,
									"id" : "obj-94",
									"maxclass" : "message",
									"numinlets" : 2,
									"numoutlets" : 1,
									"outlettype" : [ "" ],
									"patching_rect" : [ 449.0, 72.0, 67.0, 19.0 ],
									"style" : "",
									"text" : "neighbors $1"
								}

							}
, 							{
								"box" : 								{
									"fontname" : "Arial",
									"fontsize" : 9.0,
									"id" : "obj-95",
									"maxclass" : "message",
									"numinlets" : 2,
									"numoutlets" : 1,
									"outlettype" : [ "" ],
									"patching_rect" : [ 449.0, 252.0, 67.0, 19.0 ],
									"style" : "",
									"text" : "inertia $1"
								}

							}
, 							{
								"box" : 								{
									"bgcolor" : [ 0.866667, 0.866667, 0.866667, 1.0 ],
									"fontname" : "Arial",
									"fontsize" : 9.0,
									"format" : 6,
									"id" : "obj-96",
									"maxclass" : "flonum",
									"numinlets" : 1,
									"numoutlets" : 2,
									"outlettype" : [ "", "bang" ],
									"parameter_enable" : 0,
									"patching_rect" : [ 415.0, 252.0, 35.0, 19.0 ],
									"style" : "",
									"textcolor" : [ 0.0, 0.0, 0.0, 1.0 ],
									"triscale" : 0.9,
									"varname" : "flonum[7]"
								}

							}
, 							{
								"box" : 								{
									"fontname" : "Arial",
									"fontsize" : 9.0,
									"id" : "obj-97",
									"maxclass" : "message",
									"numinlets" : 2,
									"numoutlets" : 1,
									"outlettype" : [ "" ],
									"patching_rect" : [ 449.0, 198.0, 67.0, 19.0 ],
									"style" : "",
									"text" : "repel $1"
								}

							}
, 							{
								"box" : 								{
									"bgcolor" : [ 0.866667, 0.866667, 0.866667, 1.0 ],
									"fontname" : "Arial",
									"fontsize" : 9.0,
									"format" : 6,
									"id" : "obj-98",
									"maxclass" : "flonum",
									"minimum" : 0.0,
									"numinlets" : 1,
									"numoutlets" : 2,
									"outlettype" : [ "", "bang" ],
									"parameter_enable" : 0,
									"patching_rect" : [ 415.0, 198.0, 35.0, 19.0 ],
									"style" : "",
									"textcolor" : [ 0.0, 0.0, 0.0, 1.0 ],
									"triscale" : 0.9,
									"varname" : "flonum[6]"
								}

							}
, 							{
								"box" : 								{
									"bgcolor" : [ 0.866667, 0.866667, 0.866667, 1.0 ],
									"fontname" : "Arial",
									"fontsize" : 9.0,
									"format" : 6,
									"id" : "obj-99",
									"maxclass" : "flonum",
									"minimum" : 0.0,
									"numinlets" : 1,
									"numoutlets" : 2,
									"outlettype" : [ "", "bang" ],
									"parameter_enable" : 0,
									"patching_rect" : [ 415.0, 144.0, 35.0, 19.0 ],
									"style" : "",
									"textcolor" : [ 0.0, 0.0, 0.0, 1.0 ],
									"triscale" : 0.9,
									"varname" : "flonum[5]"
								}

							}
, 							{
								"box" : 								{
									"fontname" : "Arial",
									"fontsize" : 9.0,
									"id" : "obj-100",
									"maxclass" : "message",
									"numinlets" : 2,
									"numoutlets" : 1,
									"outlettype" : [ "" ],
									"patching_rect" : [ 449.0, 144.0, 67.0, 19.0 ],
									"style" : "",
									"text" : "attract $1"
								}

							}
, 							{
								"box" : 								{
									"bgcolor" : [ 0.866667, 0.866667, 0.866667, 1.0 ],
									"fontname" : "Arial",
									"fontsize" : 9.0,
									"format" : 6,
									"id" : "obj-101",
									"maxclass" : "flonum",
									"minimum" : 0.0,
									"numinlets" : 1,
									"numoutlets" : 2,
									"outlettype" : [ "", "bang" ],
									"parameter_enable" : 0,
									"patching_rect" : [ 415.0, 108.0, 35.0, 19.0 ],
									"style" : "",
									"textcolor" : [ 0.0, 0.0, 0.0, 1.0 ],
									"triscale" : 0.9,
									"varname" : "flonum[4]"
								}

							}
, 							{
								"box" : 								{
									"fontname" : "Arial",
									"fontsize" : 9.0,
									"id" : "obj-102",
									"maxclass" : "message",
									"numinlets" : 2,
									"numoutlets" : 1,
									"outlettype" : [ "" ],
									"patching_rect" : [ 449.0, 108.0, 67.0, 19.0 ],
									"style" : "",
									"text" : "minspeed $1"
								}

							}
, 							{
								"box" : 								{
									"fontname" : "Arial",
									"fontsize" : 9.0,
									"id" : "obj-103",
									"maxclass" : "message",
									"numinlets" : 2,
									"numoutlets" : 1,
									"outlettype" : [ "" ],
									"patching_rect" : [ 449.0, 270.0, 67.0, 19.0 ],
									"style" : "",
									"text" : "accel $1"
								}

							}
, 							{
								"box" : 								{
									"bgcolor" : [ 0.866667, 0.866667, 0.866667, 1.0 ],
									"fontname" : "Arial",
									"fontsize" : 9.0,
									"format" : 6,
									"id" : "obj-104",
									"maxclass" : "flonum",
									"minimum" : 0.0,
									"numinlets" : 1,
									"numoutlets" : 2,
									"outlettype" : [ "", "bang" ],
									"parameter_enable" : 0,
									"patching_rect" : [ 415.0, 270.0, 35.0, 19.0 ],
									"style" : "",
									"textcolor" : [ 0.0, 0.0, 0.0, 1.0 ],
									"triscale" : 0.9,
									"varname" : "flonum[3]"
								}

							}
, 							{
								"box" : 								{
									"fontname" : "Arial",
									"fontsize" : 9.0,
									"id" : "obj-105",
									"maxclass" : "message",
									"numinlets" : 2,
									"numoutlets" : 1,
									"outlettype" : [ "" ],
									"patching_rect" : [ 449.0, 216.0, 67.0, 19.0 ],
									"style" : "",
									"text" : "edgedist $1"
								}

							}
, 							{
								"box" : 								{
									"bgcolor" : [ 0.866667, 0.866667, 0.866667, 1.0 ],
									"fontname" : "Arial",
									"fontsize" : 9.0,
									"format" : 6,
									"id" : "obj-106",
									"maxclass" : "flonum",
									"minimum" : 0.0,
									"numinlets" : 1,
									"numoutlets" : 2,
									"outlettype" : [ "", "bang" ],
									"parameter_enable" : 0,
									"patching_rect" : [ 415.0, 216.0, 35.0, 19.0 ],
									"style" : "",
									"textcolor" : [ 0.0, 0.0, 0.0, 1.0 ],
									"triscale" : 0.9,
									"varname" : "flonum[2]"
								}

							}
, 							{
								"box" : 								{
									"bgcolor" : [ 0.866667, 0.866667, 0.866667, 1.0 ],
									"fontname" : "Arial",
									"fontsize" : 9.0,
									"format" : 6,
									"id" : "obj-107",
									"maxclass" : "flonum",
									"minimum" : 0.0,
									"numinlets" : 1,
									"numoutlets" : 2,
									"outlettype" : [ "", "bang" ],
									"parameter_enable" : 0,
									"patching_rect" : [ 415.0, 162.0, 35.0, 19.0 ],
									"style" : "",
									"textcolor" : [ 0.0, 0.0, 0.0, 1.0 ],
									"triscale" : 0.9,
									"varname" : "flonum[1]"
								}

							}
, 							{
								"box" : 								{
									"fontname" : "Arial",
									"fontsize" : 9.0,
									"id" : "obj-108",
									"maxclass" : "message",
									"numinlets" : 2,
									"numoutlets" : 1,
									"outlettype" : [ "" ],
									"patching_rect" : [ 449.0, 162.0, 67.0, 19.0 ],
									"style" : "",
									"text" : "match $1"
								}

							}
, 							{
								"box" : 								{
									"bgcolor" : [ 0.866667, 0.866667, 0.866667, 1.0 ],
									"fontname" : "Arial",
									"fontsize" : 9.0,
									"format" : 6,
									"id" : "obj-109",
									"maxclass" : "flonum",
									"minimum" : 0.0,
									"numinlets" : 1,
									"numoutlets" : 2,
									"outlettype" : [ "", "bang" ],
									"parameter_enable" : 0,
									"patching_rect" : [ 415.0, 90.0, 35.0, 19.0 ],
									"style" : "",
									"textcolor" : [ 0.0, 0.0, 0.0, 1.0 ],
									"triscale" : 0.9,
									"varname" : "flonum[17]"
								}

							}
, 							{
								"box" : 								{
									"fontname" : "Arial",
									"fontsize" : 9.0,
									"id" : "obj-110",
									"maxclass" : "message",
									"numinlets" : 2,
									"numoutlets" : 1,
									"outlettype" : [ "" ],
									"patching_rect" : [ 449.0, 90.0, 67.0, 19.0 ],
									"style" : "",
									"text" : "maxspeed $1"
								}

							}
, 							{
								"box" : 								{
									"fontname" : "Arial",
									"fontsize" : 9.0,
									"hidden" : 1,
									"id" : "obj-111",
									"maxclass" : "newobj",
									"numinlets" : 1,
									"numoutlets" : 0,
									"patching_rect" : [ 460.0, 441.0, 77.0, 19.0 ],
									"style" : "",
									"text" : "s boidParam2D"
								}

							}
, 							{
								"box" : 								{
									"fontname" : "Arial",
									"fontsize" : 9.0,
									"id" : "obj-112",
									"linecount" : 2,
									"maxclass" : "comment",
									"numinlets" : 1,
									"numoutlets" : 0,
									"patching_rect" : [ 28.0, 250.0, 325.0, 27.0 ],
									"style" : "",
									"text" : "For more information about the Boids algorithm, see Craig Reynolds' Web site at \"http://reality.sgi.com/employees/craig/boids.html\"."
								}

							}
, 							{
								"box" : 								{
									"angle" : 270.0,
									"bgcolor" : [ 0.937255, 0.937255, 0.937255, 1.0 ],
									"bordercolor" : [ 0.0, 0.0, 0.0, 1.0 ],
									"id" : "obj-113",
									"maxclass" : "panel",
									"mode" : 0,
									"numinlets" : 1,
									"numoutlets" : 0,
									"patching_rect" : [ 20.0, 21.0, 783.0, 36.0 ],
									"proportion" : 0.39,
									"rounded" : 0,
									"style" : ""
								}

							}
, 							{
								"box" : 								{
									"angle" : 270.0,
									"bgcolor" : [ 0.937255, 0.937255, 0.937255, 1.0 ],
									"border" : 1,
									"bordercolor" : [ 0.937255, 0.937255, 0.937255, 1.0 ],
									"id" : "obj-114",
									"maxclass" : "panel",
									"mode" : 0,
									"numinlets" : 1,
									"numoutlets" : 0,
									"patching_rect" : [ 24.0, 536.0, 257.0, 72.0 ],
									"proportion" : 0.39,
									"rounded" : 0,
									"style" : ""
								}

							}
 ],
						"lines" : [ 							{
								"patchline" : 								{
									"destination" : [ "obj-111", 0 ],
									"disabled" : 0,
									"hidden" : 1,
									"midpoints" : [ 458.5, 439.0, 469.5, 439.0 ],
									"source" : [ "obj-100", 0 ]
								}

							}
, 							{
								"patchline" : 								{
									"destination" : [ "obj-102", 0 ],
									"disabled" : 0,
									"hidden" : 1,
									"source" : [ "obj-101", 0 ]
								}

							}
, 							{
								"patchline" : 								{
									"destination" : [ "obj-111", 0 ],
									"disabled" : 0,
									"hidden" : 1,
									"midpoints" : [ 458.5, 439.0, 469.5, 439.0 ],
									"source" : [ "obj-102", 0 ]
								}

							}
, 							{
								"patchline" : 								{
									"destination" : [ "obj-111", 0 ],
									"disabled" : 0,
									"hidden" : 1,
									"midpoints" : [ 458.5, 420.0, 469.5, 420.0 ],
									"source" : [ "obj-103", 0 ]
								}

							}
, 							{
								"patchline" : 								{
									"destination" : [ "obj-103", 0 ],
									"disabled" : 0,
									"hidden" : 1,
									"source" : [ "obj-104", 0 ]
								}

							}
, 							{
								"patchline" : 								{
									"destination" : [ "obj-111", 0 ],
									"disabled" : 0,
									"hidden" : 1,
									"midpoints" : [ 458.5, 439.0, 469.5, 439.0 ],
									"source" : [ "obj-105", 0 ]
								}

							}
, 							{
								"patchline" : 								{
									"destination" : [ "obj-105", 0 ],
									"disabled" : 0,
									"hidden" : 1,
									"source" : [ "obj-106", 0 ]
								}

							}
, 							{
								"patchline" : 								{
									"destination" : [ "obj-108", 0 ],
									"disabled" : 0,
									"hidden" : 1,
									"source" : [ "obj-107", 0 ]
								}

							}
, 							{
								"patchline" : 								{
									"destination" : [ "obj-111", 0 ],
									"disabled" : 0,
									"hidden" : 1,
									"midpoints" : [ 458.5, 429.0, 469.5, 429.0 ],
									"source" : [ "obj-108", 0 ]
								}

							}
, 							{
								"patchline" : 								{
									"destination" : [ "obj-110", 0 ],
									"disabled" : 0,
									"hidden" : 1,
									"source" : [ "obj-109", 0 ]
								}

							}
, 							{
								"patchline" : 								{
									"destination" : [ "obj-111", 0 ],
									"disabled" : 0,
									"hidden" : 1,
									"midpoints" : [ 458.5, 420.0, 469.5, 420.0 ],
									"source" : [ "obj-110", 0 ]
								}

							}
, 							{
								"patchline" : 								{
									"destination" : [ "obj-118", 0 ],
									"disabled" : 0,
									"hidden" : 0,
									"source" : [ "obj-116", 0 ]
								}

							}
, 							{
								"patchline" : 								{
									"destination" : [ "obj-118", 1 ],
									"disabled" : 0,
									"hidden" : 0,
									"source" : [ "obj-117", 0 ]
								}

							}
, 							{
								"patchline" : 								{
									"destination" : [ "obj-115", 0 ],
									"disabled" : 0,
									"hidden" : 0,
									"source" : [ "obj-118", 0 ]
								}

							}
, 							{
								"patchline" : 								{
									"destination" : [ "obj-19", 0 ],
									"disabled" : 0,
									"hidden" : 0,
									"source" : [ "obj-18", 0 ]
								}

							}
, 							{
								"patchline" : 								{
									"destination" : [ "obj-22", 0 ],
									"disabled" : 0,
									"hidden" : 0,
									"midpoints" : [ 117.5, 580.0, 37.5, 580.0 ],
									"source" : [ "obj-19", 0 ]
								}

							}
, 							{
								"patchline" : 								{
									"destination" : [ "obj-21", 2 ],
									"disabled" : 0,
									"hidden" : 0,
									"midpoints" : [ 234.5, 557.0, 246.5, 557.0 ],
									"source" : [ "obj-20", 0 ]
								}

							}
, 							{
								"patchline" : 								{
									"destination" : [ "obj-22", 0 ],
									"disabled" : 0,
									"hidden" : 0,
									"midpoints" : [ 190.5, 580.0, 37.5, 580.0 ],
									"source" : [ "obj-21", 0 ]
								}

							}
, 							{
								"patchline" : 								{
									"destination" : [ "obj-25", 0 ],
									"disabled" : 0,
									"hidden" : 0,
									"source" : [ "obj-22", 0 ]
								}

							}
, 							{
								"patchline" : 								{
									"destination" : [ "obj-21", 1 ],
									"disabled" : 0,
									"hidden" : 0,
									"midpoints" : [ 196.5, 557.0, 218.5, 557.0 ],
									"source" : [ "obj-23", 0 ]
								}

							}
, 							{
								"patchline" : 								{
									"destination" : [ "obj-27", 0 ],
									"disabled" : 0,
									"hidden" : 0,
									"source" : [ "obj-26", 0 ]
								}

							}
, 							{
								"patchline" : 								{
									"destination" : [ "obj-30", 0 ],
									"disabled" : 0,
									"hidden" : 0,
									"source" : [ "obj-27", 0 ]
								}

							}
, 							{
								"patchline" : 								{
									"destination" : [ "obj-26", 0 ],
									"disabled" : 0,
									"hidden" : 0,
									"source" : [ "obj-28", 0 ]
								}

							}
, 							{
								"patchline" : 								{
									"destination" : [ "obj-33", 0 ],
									"disabled" : 0,
									"hidden" : 0,
									"source" : [ "obj-29", 0 ]
								}

							}
, 							{
								"patchline" : 								{
									"destination" : [ "obj-32", 0 ],
									"disabled" : 0,
									"hidden" : 0,
									"source" : [ "obj-31", 0 ]
								}

							}
, 							{
								"patchline" : 								{
									"destination" : [ "obj-36", 0 ],
									"disabled" : 0,
									"hidden" : 0,
									"midpoints" : [ 97.5, 408.0, 34.5, 408.0 ],
									"source" : [ "obj-32", 0 ]
								}

							}
, 							{
								"patchline" : 								{
									"destination" : [ "obj-34", 0 ],
									"disabled" : 0,
									"hidden" : 0,
									"source" : [ "obj-33", 0 ]
								}

							}
, 							{
								"patchline" : 								{
									"destination" : [ "obj-35", 0 ],
									"disabled" : 0,
									"hidden" : 0,
									"source" : [ "obj-34", 0 ]
								}

							}
, 							{
								"patchline" : 								{
									"destination" : [ "obj-36", 0 ],
									"disabled" : 0,
									"hidden" : 0,
									"midpoints" : [ 65.5, 408.0, 34.5, 408.0 ],
									"source" : [ "obj-35", 1 ]
								}

							}
, 							{
								"patchline" : 								{
									"destination" : [ "obj-36", 0 ],
									"disabled" : 0,
									"hidden" : 0,
									"midpoints" : [ 34.5, 408.0, 34.5, 408.0 ],
									"source" : [ "obj-35", 0 ]
								}

							}
, 							{
								"patchline" : 								{
									"destination" : [ "obj-116", 0 ],
									"disabled" : 0,
									"hidden" : 0,
									"source" : [ "obj-37", 0 ]
								}

							}
, 							{
								"patchline" : 								{
									"destination" : [ "obj-117", 0 ],
									"disabled" : 0,
									"hidden" : 0,
									"source" : [ "obj-37", 0 ]
								}

							}
, 							{
								"patchline" : 								{
									"destination" : [ "obj-22", 0 ],
									"disabled" : 0,
									"hidden" : 0,
									"source" : [ "obj-37", 0 ]
								}

							}
, 							{
								"patchline" : 								{
									"destination" : [ "obj-37", 0 ],
									"disabled" : 0,
									"hidden" : 0,
									"midpoints" : [ 97.5, 536.0, 37.5, 536.0 ],
									"source" : [ "obj-38", 0 ]
								}

							}
, 							{
								"patchline" : 								{
									"destination" : [ "obj-37", 0 ],
									"disabled" : 0,
									"hidden" : 0,
									"source" : [ "obj-39", 0 ]
								}

							}
, 							{
								"patchline" : 								{
									"destination" : [ "obj-39", 0 ],
									"disabled" : 0,
									"hidden" : 0,
									"source" : [ "obj-41", 0 ]
								}

							}
, 							{
								"patchline" : 								{
									"destination" : [ "obj-59", 0 ],
									"disabled" : 0,
									"hidden" : 1,
									"midpoints" : [ 823.5, 341.0, 458.5, 341.0 ],
									"source" : [ "obj-42", 1 ]
								}

							}
, 							{
								"patchline" : 								{
									"destination" : [ "obj-60", 0 ],
									"disabled" : 0,
									"hidden" : 1,
									"midpoints" : [ 778.5, 341.0, 424.5, 341.0 ],
									"source" : [ "obj-42", 0 ]
								}

							}
, 							{
								"patchline" : 								{
									"destination" : [ "obj-42", 0 ],
									"disabled" : 0,
									"hidden" : 1,
									"source" : [ "obj-43", 0 ]
								}

							}
, 							{
								"patchline" : 								{
									"destination" : [ "obj-49", 0 ],
									"disabled" : 0,
									"hidden" : 1,
									"source" : [ "obj-47", 0 ]
								}

							}
, 							{
								"patchline" : 								{
									"destination" : [ "obj-111", 0 ],
									"disabled" : 0,
									"hidden" : 1,
									"midpoints" : [ 424.5, 439.0, 469.5, 439.0 ],
									"source" : [ "obj-48", 0 ]
								}

							}
, 							{
								"patchline" : 								{
									"destination" : [ "obj-111", 0 ],
									"disabled" : 0,
									"hidden" : 1,
									"midpoints" : [ 481.5, 450.0, 469.5, 450.0 ],
									"source" : [ "obj-49", 0 ]
								}

							}
, 							{
								"patchline" : 								{
									"destination" : [ "obj-51", 0 ],
									"disabled" : 0,
									"hidden" : 1,
									"source" : [ "obj-50", 0 ]
								}

							}
, 							{
								"patchline" : 								{
									"destination" : [ "obj-111", 0 ],
									"disabled" : 0,
									"hidden" : 1,
									"midpoints" : [ 458.5, 429.0, 469.5, 429.0 ],
									"source" : [ "obj-51", 0 ]
								}

							}
, 							{
								"patchline" : 								{
									"destination" : [ "obj-63", 4 ],
									"disabled" : 0,
									"hidden" : 1,
									"source" : [ "obj-52", 0 ]
								}

							}
, 							{
								"patchline" : 								{
									"destination" : [ "obj-63", 3 ],
									"disabled" : 0,
									"hidden" : 1,
									"source" : [ "obj-53", 0 ]
								}

							}
, 							{
								"patchline" : 								{
									"destination" : [ "obj-63", 2 ],
									"disabled" : 0,
									"hidden" : 1,
									"source" : [ "obj-54", 0 ]
								}

							}
, 							{
								"patchline" : 								{
									"destination" : [ "obj-100", 0 ],
									"disabled" : 0,
									"hidden" : 1,
									"source" : [ "obj-56", 0 ]
								}

							}
, 							{
								"patchline" : 								{
									"destination" : [ "obj-102", 0 ],
									"disabled" : 0,
									"hidden" : 1,
									"source" : [ "obj-56", 0 ]
								}

							}
, 							{
								"patchline" : 								{
									"destination" : [ "obj-103", 0 ],
									"disabled" : 0,
									"hidden" : 1,
									"source" : [ "obj-56", 0 ]
								}

							}
, 							{
								"patchline" : 								{
									"destination" : [ "obj-105", 0 ],
									"disabled" : 0,
									"hidden" : 1,
									"source" : [ "obj-56", 0 ]
								}

							}
, 							{
								"patchline" : 								{
									"destination" : [ "obj-108", 0 ],
									"disabled" : 0,
									"hidden" : 1,
									"source" : [ "obj-56", 0 ]
								}

							}
, 							{
								"patchline" : 								{
									"destination" : [ "obj-110", 0 ],
									"disabled" : 0,
									"hidden" : 1,
									"source" : [ "obj-56", 0 ]
								}

							}
, 							{
								"patchline" : 								{
									"destination" : [ "obj-85", 0 ],
									"disabled" : 0,
									"hidden" : 1,
									"source" : [ "obj-56", 0 ]
								}

							}
, 							{
								"patchline" : 								{
									"destination" : [ "obj-87", 0 ],
									"disabled" : 0,
									"hidden" : 1,
									"source" : [ "obj-56", 0 ]
								}

							}
, 							{
								"patchline" : 								{
									"destination" : [ "obj-89", 0 ],
									"disabled" : 0,
									"hidden" : 1,
									"source" : [ "obj-56", 0 ]
								}

							}
, 							{
								"patchline" : 								{
									"destination" : [ "obj-92", 0 ],
									"disabled" : 0,
									"hidden" : 1,
									"source" : [ "obj-56", 0 ]
								}

							}
, 							{
								"patchline" : 								{
									"destination" : [ "obj-94", 0 ],
									"disabled" : 0,
									"hidden" : 1,
									"source" : [ "obj-56", 0 ]
								}

							}
, 							{
								"patchline" : 								{
									"destination" : [ "obj-95", 0 ],
									"disabled" : 0,
									"hidden" : 1,
									"source" : [ "obj-56", 0 ]
								}

							}
, 							{
								"patchline" : 								{
									"destination" : [ "obj-97", 0 ],
									"disabled" : 0,
									"hidden" : 1,
									"source" : [ "obj-56", 0 ]
								}

							}
, 							{
								"patchline" : 								{
									"destination" : [ "obj-62", 2 ],
									"disabled" : 0,
									"hidden" : 1,
									"source" : [ "obj-59", 0 ]
								}

							}
, 							{
								"patchline" : 								{
									"destination" : [ "obj-62", 1 ],
									"disabled" : 0,
									"hidden" : 1,
									"source" : [ "obj-60", 0 ]
								}

							}
, 							{
								"patchline" : 								{
									"destination" : [ "obj-63", 1 ],
									"disabled" : 0,
									"hidden" : 1,
									"source" : [ "obj-61", 0 ]
								}

							}
, 							{
								"patchline" : 								{
									"destination" : [ "obj-111", 0 ],
									"disabled" : 0,
									"hidden" : 1,
									"midpoints" : [ 424.5, 439.0, 469.5, 439.0 ],
									"source" : [ "obj-62", 0 ]
								}

							}
, 							{
								"patchline" : 								{
									"destination" : [ "obj-111", 0 ],
									"disabled" : 0,
									"hidden" : 1,
									"midpoints" : [ 424.5, 432.0, 469.5, 432.0 ],
									"source" : [ "obj-63", 0 ]
								}

							}
, 							{
								"patchline" : 								{
									"destination" : [ "obj-111", 0 ],
									"disabled" : 0,
									"hidden" : 1,
									"midpoints" : [ 458.5, 423.0, 469.5, 423.0 ],
									"source" : [ "obj-85", 0 ]
								}

							}
, 							{
								"patchline" : 								{
									"destination" : [ "obj-85", 0 ],
									"disabled" : 0,
									"hidden" : 1,
									"source" : [ "obj-86", 0 ]
								}

							}
, 							{
								"patchline" : 								{
									"destination" : [ "obj-111", 0 ],
									"disabled" : 0,
									"hidden" : 1,
									"midpoints" : [ 458.5, 438.0, 469.5, 438.0 ],
									"source" : [ "obj-87", 0 ]
								}

							}
, 							{
								"patchline" : 								{
									"destination" : [ "obj-87", 0 ],
									"disabled" : 0,
									"hidden" : 1,
									"source" : [ "obj-88", 0 ]
								}

							}
, 							{
								"patchline" : 								{
									"destination" : [ "obj-111", 0 ],
									"disabled" : 0,
									"hidden" : 1,
									"midpoints" : [ 458.5, 439.0, 469.5, 439.0 ],
									"source" : [ "obj-89", 0 ]
								}

							}
, 							{
								"patchline" : 								{
									"destination" : [ "obj-89", 0 ],
									"disabled" : 0,
									"hidden" : 1,
									"source" : [ "obj-90", 0 ]
								}

							}
, 							{
								"patchline" : 								{
									"destination" : [ "obj-92", 0 ],
									"disabled" : 0,
									"hidden" : 1,
									"source" : [ "obj-91", 0 ]
								}

							}
, 							{
								"patchline" : 								{
									"destination" : [ "obj-111", 0 ],
									"disabled" : 0,
									"hidden" : 1,
									"midpoints" : [ 458.5, 341.0, 469.5, 341.0 ],
									"source" : [ "obj-92", 0 ]
								}

							}
, 							{
								"patchline" : 								{
									"destination" : [ "obj-94", 0 ],
									"disabled" : 0,
									"hidden" : 1,
									"source" : [ "obj-93", 0 ]
								}

							}
, 							{
								"patchline" : 								{
									"destination" : [ "obj-111", 0 ],
									"disabled" : 0,
									"hidden" : 1,
									"midpoints" : [ 458.5, 439.0, 469.5, 439.0 ],
									"source" : [ "obj-94", 0 ]
								}

							}
, 							{
								"patchline" : 								{
									"destination" : [ "obj-111", 0 ],
									"disabled" : 0,
									"hidden" : 1,
									"midpoints" : [ 458.5, 414.0, 469.5, 414.0 ],
									"source" : [ "obj-95", 0 ]
								}

							}
, 							{
								"patchline" : 								{
									"destination" : [ "obj-95", 0 ],
									"disabled" : 0,
									"hidden" : 1,
									"source" : [ "obj-96", 0 ]
								}

							}
, 							{
								"patchline" : 								{
									"destination" : [ "obj-111", 0 ],
									"disabled" : 0,
									"hidden" : 1,
									"midpoints" : [ 458.5, 430.0, 469.5, 430.0 ],
									"source" : [ "obj-97", 0 ]
								}

							}
, 							{
								"patchline" : 								{
									"destination" : [ "obj-97", 0 ],
									"disabled" : 0,
									"hidden" : 1,
									"source" : [ "obj-98", 0 ]
								}

							}
, 							{
								"patchline" : 								{
									"destination" : [ "obj-100", 0 ],
									"disabled" : 0,
									"hidden" : 1,
									"source" : [ "obj-99", 0 ]
								}

							}
 ]
					}
,
					"patching_rect" : [ 81.333344, 50.666668, 49.0, 22.0 ],
					"saved_object_attributes" : 					{
						"description" : "",
						"digest" : "",
						"globalpatchername" : "",
						"style" : "",
						"tags" : ""
					}
,
					"style" : "",
					"text" : "p boids",
					"varname" : "boids"
				}

			}
 ],
		"lines" : [ 			{
				"patchline" : 				{
					"destination" : [ "obj-42", 0 ],
					"disabled" : 0,
					"hidden" : 0,
					"source" : [ "obj-1", 0 ]
				}

			}
, 			{
				"patchline" : 				{
					"destination" : [ "obj-20", 0 ],
					"disabled" : 0,
					"hidden" : 0,
					"source" : [ "obj-11", 1 ]
				}

			}
, 			{
				"patchline" : 				{
					"destination" : [ "obj-26", 0 ],
					"disabled" : 0,
					"hidden" : 0,
					"source" : [ "obj-11", 0 ]
				}

			}
, 			{
				"patchline" : 				{
					"destination" : [ "obj-9", 0 ],
					"disabled" : 0,
					"hidden" : 0,
					"source" : [ "obj-2", 0 ]
				}

			}
, 			{
				"patchline" : 				{
					"destination" : [ "obj-22", 0 ],
					"disabled" : 0,
					"hidden" : 0,
					"source" : [ "obj-20", 0 ]
				}

			}
, 			{
				"patchline" : 				{
					"destination" : [ "obj-23", 0 ],
					"disabled" : 0,
					"hidden" : 0,
					"source" : [ "obj-22", 0 ]
				}

			}
, 			{
				"patchline" : 				{
					"destination" : [ "obj-25", 0 ],
					"disabled" : 0,
					"hidden" : 0,
					"source" : [ "obj-23", 0 ]
				}

			}
, 			{
				"patchline" : 				{
					"destination" : [ "obj-30", 0 ],
					"disabled" : 0,
					"hidden" : 0,
					"source" : [ "obj-25", 0 ]
				}

			}
, 			{
				"patchline" : 				{
					"destination" : [ "obj-7", 0 ],
					"disabled" : 0,
					"hidden" : 0,
					"source" : [ "obj-25", 0 ]
				}

			}
, 			{
				"patchline" : 				{
					"destination" : [ "obj-31", 0 ],
					"disabled" : 0,
					"hidden" : 0,
					"source" : [ "obj-26", 0 ]
				}

			}
, 			{
				"patchline" : 				{
					"destination" : [ "obj-38", 0 ],
					"disabled" : 0,
					"hidden" : 0,
					"source" : [ "obj-29", 0 ]
				}

			}
, 			{
				"patchline" : 				{
					"destination" : [ "obj-2", 0 ],
					"disabled" : 0,
					"hidden" : 0,
					"source" : [ "obj-3", 0 ]
				}

			}
, 			{
				"patchline" : 				{
					"destination" : [ "obj-29", 4 ],
					"disabled" : 0,
					"hidden" : 0,
					"source" : [ "obj-30", 0 ]
				}

			}
, 			{
				"patchline" : 				{
					"destination" : [ "obj-29", 0 ],
					"disabled" : 0,
					"hidden" : 0,
					"midpoints" : [ 163.166672, 161.833344, 275.333374, 161.833344 ],
					"source" : [ "obj-31", 1 ]
				}

			}
, 			{
				"patchline" : 				{
					"destination" : [ "obj-43", 0 ],
					"disabled" : 0,
					"hidden" : 0,
					"source" : [ "obj-31", 0 ]
				}

			}
, 			{
				"patchline" : 				{
					"destination" : [ "obj-10", 0 ],
					"disabled" : 0,
					"hidden" : 0,
					"midpoints" : [ 246.083359, 457.666656, 217.416687, 457.666656, 217.416687, 423.0, 188.75, 423.0 ],
					"source" : [ "obj-35", 0 ]
				}

			}
, 			{
				"patchline" : 				{
					"destination" : [ "obj-10", 0 ],
					"disabled" : 0,
					"hidden" : 0,
					"midpoints" : [ 293.916687, 457.666656, 241.333344, 457.666656, 241.333344, 423.0, 188.75, 423.0 ],
					"source" : [ "obj-37", 0 ]
				}

			}
, 			{
				"patchline" : 				{
					"destination" : [ "obj-41", 0 ],
					"disabled" : 0,
					"hidden" : 0,
					"source" : [ "obj-38", 0 ]
				}

			}
, 			{
				"patchline" : 				{
					"destination" : [ "obj-10", 0 ],
					"disabled" : 0,
					"hidden" : 0,
					"midpoints" : [ 273.416687, 496.333344, 231.083344, 496.333344, 231.083344, 423.0, 188.75, 423.0 ],
					"source" : [ "obj-39", 0 ]
				}

			}
, 			{
				"patchline" : 				{
					"destination" : [ "obj-11", 0 ],
					"disabled" : 0,
					"hidden" : 0,
					"source" : [ "obj-4", 0 ]
				}

			}
, 			{
				"patchline" : 				{
					"destination" : [ "obj-9", 0 ],
					"disabled" : 0,
					"hidden" : 0,
					"source" : [ "obj-41", 0 ]
				}

			}
, 			{
				"patchline" : 				{
					"destination" : [ "obj-10", 1 ],
					"disabled" : 0,
					"hidden" : 0,
					"source" : [ "obj-42", 1 ]
				}

			}
, 			{
				"patchline" : 				{
					"destination" : [ "obj-10", 0 ],
					"disabled" : 0,
					"hidden" : 0,
					"source" : [ "obj-42", 0 ]
				}

			}
, 			{
				"patchline" : 				{
					"destination" : [ "obj-44", 0 ],
					"disabled" : 0,
					"hidden" : 0,
					"source" : [ "obj-43", 0 ]
				}

			}
, 			{
				"patchline" : 				{
					"destination" : [ "obj-45", 0 ],
					"disabled" : 0,
					"hidden" : 0,
					"source" : [ "obj-43", 1 ]
				}

			}
, 			{
				"patchline" : 				{
					"destination" : [ "obj-46", 0 ],
					"disabled" : 0,
					"hidden" : 0,
					"source" : [ "obj-44", 0 ]
				}

			}
, 			{
				"patchline" : 				{
					"destination" : [ "obj-46", 1 ],
					"disabled" : 0,
					"hidden" : 0,
					"source" : [ "obj-45", 0 ]
				}

			}
, 			{
				"patchline" : 				{
					"destination" : [ "obj-9", 0 ],
					"disabled" : 0,
					"hidden" : 0,
					"source" : [ "obj-46", 0 ]
				}

			}
, 			{
				"patchline" : 				{
					"destination" : [ "obj-3", 0 ],
					"disabled" : 0,
					"hidden" : 0,
					"source" : [ "obj-7", 1 ]
				}

			}
, 			{
				"patchline" : 				{
					"destination" : [ "obj-42", 1 ],
					"disabled" : 0,
					"hidden" : 0,
					"source" : [ "obj-9", 0 ]
				}

			}
, 			{
				"patchline" : 				{
					"destination" : [ "obj-42", 0 ],
					"disabled" : 0,
					"hidden" : 0,
					"source" : [ "obj-9", 0 ]
				}

			}
 ],
		"parameters" : 		{
			"obj-42" : [ "live.gain~", "live.gain~", 0 ]
		}
,
		"dependency_cache" : [ 			{
				"name" : "boids-poly.maxpat",
				"bootpath" : "/Volumes/Macintosh HD/Users/uqbar/Documents/ircam/day-poly",
				"type" : "JSON",
				"implicit" : 1
			}
, 			{
				"name" : "jit.boids2d.mxo",
				"type" : "iLaX"
			}
, 			{
				"name" : "xray.jit.boidsrender.mxo",
				"type" : "iLaX"
			}
 ],
		"autosave" : 0
	}

}
