{
	"patcher" : 	{
		"fileversion" : 1,
		"appversion" : 		{
			"major" : 7,
			"minor" : 2,
			"revision" : 3,
			"architecture" : "x86",
			"modernui" : 1
		}
,
		"rect" : [ 295.0, 106.0, 1026.0, 720.0 ],
		"bglocked" : 0,
		"openinpresentation" : 0,
		"default_fontsize" : 12.0,
		"default_fontface" : 0,
		"default_fontname" : "Arial",
		"gridonopen" : 1,
		"gridsize" : [ 15.0, 15.0 ],
		"gridsnaponopen" : 1,
		"objectsnaponopen" : 1,
		"statusbarvisible" : 2,
		"toolbarvisible" : 1,
		"lefttoolbarpinned" : 0,
		"toptoolbarpinned" : 0,
		"righttoolbarpinned" : 0,
		"bottomtoolbarpinned" : 0,
		"toolbars_unpinned_last_save" : 0,
		"tallnewobj" : 0,
		"boxanimatetime" : 200,
		"enablehscroll" : 1,
		"enablevscroll" : 1,
		"devicewidth" : 0.0,
		"description" : "",
		"digest" : "",
		"tags" : "",
		"style" : "",
		"subpatcher_template" : "",
		"boxes" : [ 			{
				"box" : 				{
					"id" : "obj-225",
					"maxclass" : "newobj",
					"numinlets" : 3,
					"numoutlets" : 1,
					"outlettype" : [ "signal" ],
					"patching_rect" : [ 307.5, 282.5, 116.0, 22.0 ],
					"presentation_rect" : [ 72.0, 275.5, 0.0, 0.0 ],
					"style" : "",
					"text" : "slide~ 10000 10000"
				}

			}
, 			{
				"box" : 				{
					"id" : "obj-182",
					"maxclass" : "newobj",
					"numinlets" : 1,
					"numoutlets" : 1,
					"outlettype" : [ "signal" ],
					"patching_rect" : [ 307.5, 251.0, 33.0, 22.0 ],
					"style" : "",
					"text" : "sig~"
				}

			}
, 			{
				"box" : 				{
					"id" : "obj-181",
					"maxclass" : "message",
					"numinlets" : 2,
					"numoutlets" : 1,
					"outlettype" : [ "" ],
					"patching_rect" : [ 307.5, 170.0, 49.0, 22.0 ],
					"style" : "",
					"text" : "size $1"
				}

			}
, 			{
				"box" : 				{
					"id" : "obj-179",
					"maxclass" : "button",
					"numinlets" : 1,
					"numoutlets" : 1,
					"outlettype" : [ "bang" ],
					"patching_rect" : [ 284.0, 81.0, 24.0, 24.0 ],
					"style" : ""
				}

			}
, 			{
				"box" : 				{
					"id" : "obj-177",
					"maxclass" : "newobj",
					"numinlets" : 1,
					"numoutlets" : 9,
					"outlettype" : [ "float", "list", "float", "float", "float", "float", "float", "", "int" ],
					"patching_rect" : [ 244.5, 135.0, 103.0, 22.0 ],
					"style" : "",
					"text" : "info~ danger"
				}

			}
, 			{
				"box" : 				{
					"id" : "obj-176",
					"maxclass" : "slider",
					"numinlets" : 1,
					"numoutlets" : 1,
					"outlettype" : [ "" ],
					"parameter_enable" : 0,
					"patching_rect" : [ 307.5, 213.0, 202.0, 19.0 ],
					"size" : 5222.0,
					"style" : ""
				}

			}
, 			{
				"box" : 				{
					"id" : "obj-156",
					"maxclass" : "newobj",
					"numinlets" : 1,
					"numoutlets" : 2,
					"outlettype" : [ "signal", "bang" ],
					"patching_rect" : [ 307.5, 328.0, 80.0, 22.0 ],
					"style" : "",
					"text" : "play~ danger"
				}

			}
, 			{
				"box" : 				{
					"id" : "obj-132",
					"maxclass" : "message",
					"numinlets" : 2,
					"numoutlets" : 1,
					"outlettype" : [ "" ],
					"patching_rect" : [ 168.5, 33.0, 167.0, 22.0 ],
					"presentation_rect" : [ 399.0, 266.0, 0.0, 0.0 ],
					"style" : "",
					"text" : "replace danger-zone-clip.wav"
				}

			}
, 			{
				"box" : 				{
					"id" : "obj-131",
					"maxclass" : "message",
					"numinlets" : 2,
					"numoutlets" : 1,
					"outlettype" : [ "" ],
					"patching_rect" : [ 33.5, 33.0, 129.0, 22.0 ],
					"style" : "",
					"text" : "replace Clap-1oct.wav"
				}

			}
, 			{
				"box" : 				{
					"id" : "obj-108",
					"maxclass" : "newobj",
					"numinlets" : 1,
					"numoutlets" : 2,
					"outlettype" : [ "float", "bang" ],
					"patching_rect" : [ 33.5, 81.0, 230.0, 22.0 ],
					"style" : "",
					"text" : "buffer~ danger danger-zone-clip.wav -1 1"
				}

			}
, 			{
				"box" : 				{
					"id" : "obj-9",
					"maxclass" : "ezdac~",
					"numinlets" : 2,
					"numoutlets" : 0,
					"patching_rect" : [ 307.5, 393.0, 45.0, 45.0 ],
					"style" : ""
				}

			}
 ],
		"lines" : [ 			{
				"patchline" : 				{
					"destination" : [ "obj-177", 0 ],
					"disabled" : 0,
					"hidden" : 0,
					"source" : [ "obj-108", 1 ]
				}

			}
, 			{
				"patchline" : 				{
					"destination" : [ "obj-108", 0 ],
					"disabled" : 0,
					"hidden" : 0,
					"source" : [ "obj-131", 0 ]
				}

			}
, 			{
				"patchline" : 				{
					"destination" : [ "obj-108", 0 ],
					"disabled" : 0,
					"hidden" : 0,
					"source" : [ "obj-132", 0 ]
				}

			}
, 			{
				"patchline" : 				{
					"destination" : [ "obj-9", 1 ],
					"disabled" : 0,
					"hidden" : 0,
					"source" : [ "obj-156", 0 ]
				}

			}
, 			{
				"patchline" : 				{
					"destination" : [ "obj-9", 0 ],
					"disabled" : 0,
					"hidden" : 0,
					"source" : [ "obj-156", 0 ]
				}

			}
, 			{
				"patchline" : 				{
					"destination" : [ "obj-182", 0 ],
					"disabled" : 0,
					"hidden" : 0,
					"source" : [ "obj-176", 0 ]
				}

			}
, 			{
				"patchline" : 				{
					"destination" : [ "obj-181", 0 ],
					"disabled" : 0,
					"hidden" : 0,
					"source" : [ "obj-177", 6 ]
				}

			}
, 			{
				"patchline" : 				{
					"destination" : [ "obj-177", 0 ],
					"disabled" : 0,
					"hidden" : 0,
					"source" : [ "obj-179", 0 ]
				}

			}
, 			{
				"patchline" : 				{
					"destination" : [ "obj-176", 0 ],
					"disabled" : 0,
					"hidden" : 0,
					"source" : [ "obj-181", 0 ]
				}

			}
, 			{
				"patchline" : 				{
					"destination" : [ "obj-225", 0 ],
					"disabled" : 0,
					"hidden" : 0,
					"source" : [ "obj-182", 0 ]
				}

			}
, 			{
				"patchline" : 				{
					"destination" : [ "obj-156", 0 ],
					"disabled" : 0,
					"hidden" : 0,
					"source" : [ "obj-225", 0 ]
				}

			}
 ],
		"dependency_cache" : [  ],
		"autosave" : 0
	}

}
