{
	"patcher" : 	{
		"fileversion" : 1,
		"appversion" : 		{
			"major" : 7,
			"minor" : 2,
			"revision" : 4,
			"architecture" : "x86",
			"modernui" : 1
		}
,
		"rect" : [ 34.0, 79.0, 906.0, 783.0 ],
		"bglocked" : 0,
		"openinpresentation" : 0,
		"default_fontsize" : 12.0,
		"default_fontface" : 0,
		"default_fontname" : "Arial",
		"gridonopen" : 1,
		"gridsize" : [ 15.0, 15.0 ],
		"gridsnaponopen" : 1,
		"objectsnaponopen" : 1,
		"statusbarvisible" : 2,
		"toolbarvisible" : 1,
		"lefttoolbarpinned" : 0,
		"toptoolbarpinned" : 0,
		"righttoolbarpinned" : 0,
		"bottomtoolbarpinned" : 0,
		"toolbars_unpinned_last_save" : 0,
		"tallnewobj" : 0,
		"boxanimatetime" : 200,
		"enablehscroll" : 1,
		"enablevscroll" : 1,
		"devicewidth" : 0.0,
		"description" : "",
		"digest" : "",
		"tags" : "",
		"style" : "",
		"subpatcher_template" : "",
		"boxes" : [ 			{
				"box" : 				{
					"fontsize" : 27.170746,
					"id" : "obj-25",
					"maxclass" : "comment",
					"numinlets" : 1,
					"numoutlets" : 0,
					"patching_rect" : [ 736.0, 387.5, 854.0, 37.0 ],
					"presentation" : 1,
					"presentation_linecount" : 3,
					"presentation_rect" : [ 740.0, 387.5, 202.666687, 98.0 ],
					"style" : "",
					"text" : "X - confusion, surprise, sudden crashes"
				}

			}
, 			{
				"box" : 				{
					"fontsize" : 27.170746,
					"id" : "obj-21",
					"maxclass" : "comment",
					"numinlets" : 1,
					"numoutlets" : 0,
					"patching_rect" : [ 727.333374, 260.833344, 854.0, 37.0 ],
					"presentation" : 1,
					"presentation_linecount" : 3,
					"presentation_rect" : [ 736.0, 259.5, 188.000015, 98.0 ],
					"style" : "",
					"text" : "A - knowledge, wisdom, documentation"
				}

			}
, 			{
				"box" : 				{
					"fontsize" : 27.170746,
					"id" : "obj-20",
					"maxclass" : "comment",
					"numinlets" : 1,
					"numoutlets" : 0,
					"patching_rect" : [ 658.666687, 183.266663, 854.0, 37.0 ],
					"presentation" : 1,
					"presentation_linecount" : 3,
					"presentation_rect" : [ 732.666687, 151.5, 173.333344, 98.0 ],
					"style" : "",
					"text" : "M - hope, promise, the blank patch"
				}

			}
, 			{
				"box" : 				{
					"fontsize" : 43.434513,
					"id" : "obj-19",
					"maxclass" : "comment",
					"numinlets" : 1,
					"numoutlets" : 0,
					"patching_rect" : [ 702.666687, 169.333344, 527.0, 55.0 ],
					"presentation" : 1,
					"presentation_rect" : [ 666.666687, 103.266663, 270.0, 55.0 ],
					"style" : "",
					"text" : "3 Movements"
				}

			}
, 			{
				"box" : 				{
					"fontsize" : 38.602314,
					"id" : "obj-17",
					"maxclass" : "comment",
					"numinlets" : 1,
					"numoutlets" : 0,
					"patching_rect" : [ 417.333344, 374.400024, 453.0, 50.0 ],
					"presentation" : 1,
					"presentation_rect" : [ 417.333344, 375.733368, 374.0, 50.0 ],
					"style" : "",
					"text" : ">= 1000 hz"
				}

			}
, 			{
				"box" : 				{
					"fontsize" : 38.602314,
					"id" : "obj-14",
					"maxclass" : "comment",
					"numinlets" : 1,
					"numoutlets" : 0,
					"patching_rect" : [ 66.666672, 398.666687, 453.0, 50.0 ],
					"presentation" : 1,
					"presentation_rect" : [ 60.000004, 375.733368, 374.0, 50.0 ],
					"style" : "",
					"text" : "< 1000 hz"
				}

			}
, 			{
				"box" : 				{
					"id" : "obj-5",
					"maxclass" : "newobj",
					"numinlets" : 1,
					"numoutlets" : 1,
					"outlettype" : [ "" ],
					"patching_rect" : [ 635.0, 366.0, 81.0, 22.0 ],
					"style" : "",
					"text" : "loadmess set"
				}

			}
, 			{
				"box" : 				{
					"id" : "obj-56",
					"maxclass" : "message",
					"numinlets" : 2,
					"numoutlets" : 1,
					"outlettype" : [ "" ],
					"patching_rect" : [ 122.0, 1562.0, 43.0, 22.0 ],
					"style" : "",
					"text" : "length"
				}

			}
, 			{
				"box" : 				{
					"coll_data" : 					{
						"count" : 56,
						"data" : [ 							{
								"key" : 0,
								"value" : [ "Abondance" ]
							}
, 							{
								"key" : 1,
								"value" : [ "Banon" ]
							}
, 							{
								"key" : 2,
								"value" : [ "Beaufort" ]
							}
, 							{
								"key" : 3,
								"value" : [ "Bleu", "d'Auvergne" ]
							}
, 							{
								"key" : 4,
								"value" : [ "Bleu", "des", "Causses" ]
							}
, 							{
								"key" : 5,
								"value" : [ "Bleu", "de", "Gex" ]
							}
, 							{
								"key" : 6,
								"value" : [ "Bleu", "du", "Vercors-Sassenage" ]
							}
, 							{
								"key" : 7,
								"value" : [ "Brie", "de", "Meaux" ]
							}
, 							{
								"key" : 8,
								"value" : [ "Brie", "de", "Melun" ]
							}
, 							{
								"key" : 9,
								"value" : [ "Brocciu", "Cara", "or", "Brocciu" ]
							}
, 							{
								"key" : 10,
								"value" : [ "Cabecou" ]
							}
, 							{
								"key" : 11,
								"value" : [ "Cancoillotte" ]
							}
, 							{
								"key" : 12,
								"value" : [ "Cantal" ]
							}
, 							{
								"key" : 13,
								"value" : [ "Camembert", "de", "Normandie" ]
							}
, 							{
								"key" : 14,
								"value" : [ "Cazelle", "de", "Saint", "Affrique" ]
							}
, 							{
								"key" : 15,
								"value" : [ "Chabichou", "du", "Poitou" ]
							}
, 							{
								"key" : 16,
								"value" : [ "Chaource" ]
							}
, 							{
								"key" : 17,
								"value" : [ "Chevrotin" ]
							}
, 							{
								"key" : 18,
								"value" : [ "Comté" ]
							}
, 							{
								"key" : 19,
								"value" : [ "Crottin", "de", "Chavignol" ]
							}
, 							{
								"key" : 20,
								"value" : [ "Emmental", "de", "Savoie" ]
							}
, 							{
								"key" : 21,
								"value" : [ "Emmental", "français", "est-central" ]
							}
, 							{
								"key" : 22,
								"value" : [ "Époisses", "de", "Bourgogne" ]
							}
, 							{
								"key" : 23,
								"value" : [ "Fourme", "d'Ambert" ]
							}
, 							{
								"key" : 24,
								"value" : [ "Fourme", "de", "Montbrison" ]
							}
, 							{
								"key" : 25,
								"value" : [ "Fromage", "blanc", "or", "fromage", "frais" ]
							}
, 							{
								"key" : 26,
								"value" : [ "Gruyère" ]
							}
, 							{
								"key" : 27,
								"value" : [ "Laguiole" ]
							}
, 							{
								"key" : 28,
								"value" : [ "Langres" ]
							}
, 							{
								"key" : 29,
								"value" : [ "Livarot" ]
							}
, 							{
								"key" : 30,
								"value" : [ "Mâconnais" ]
							}
, 							{
								"key" : 31,
								"value" : [ "Maroilles", "or", "Marolles" ]
							}
, 							{
								"key" : 32,
								"value" : [ "Mimolette" ]
							}
, 							{
								"key" : 33,
								"value" : [ "Mont", "d'or", "or", "Vacherin", "du", "Haut-Doubs" ]
							}
, 							{
								"key" : 34,
								"value" : [ "Morbier" ]
							}
, 							{
								"key" : 35,
								"value" : [ "Munster", "or", "Munster-Géromé" ]
							}
, 							{
								"key" : 36,
								"value" : [ "Neufchâtel" ]
							}
, 							{
								"key" : 37,
								"value" : [ "Ossau-lraty" ]
							}
, 							{
								"key" : 38,
								"value" : [ "Pélardon" ]
							}
, 							{
								"key" : 39,
								"value" : [ "Picodon", "de", "l'Ardèche", "or", "de", "la", "Drôme" ]
							}
, 							{
								"key" : 40,
								"value" : [ "Pont-l'Évêque" ]
							}
, 							{
								"key" : 41,
								"value" : [ "Pouligny-Saint-Pierre" ]
							}
, 							{
								"key" : 42,
								"value" : [ "Reblochon", "or", "Reblochon", "de", "Savoie" ]
							}
, 							{
								"key" : 43,
								"value" : [ "Rigotte", "de", "Condrieu" ]
							}
, 							{
								"key" : 44,
								"value" : [ "Rocamadour" ]
							}
, 							{
								"key" : 45,
								"value" : [ "Roquefort" ]
							}
, 							{
								"key" : 46,
								"value" : [ "Sainte-Maure", "de", "Touraine" ]
							}
, 							{
								"key" : 47,
								"value" : [ "Saint-Nectaire" ]
							}
, 							{
								"key" : 48,
								"value" : [ "Saint-Félicien" ]
							}
, 							{
								"key" : 49,
								"value" : [ "Salers" ]
							}
, 							{
								"key" : 50,
								"value" : [ "Selles-sur-Cher" ]
							}
, 							{
								"key" : 51,
								"value" : [ "Tome", "des", "Bauges" ]
							}
, 							{
								"key" : 52,
								"value" : [ "Tomme", "de", "Savoie", "and", "Haute-Savoie" ]
							}
, 							{
								"key" : 53,
								"value" : [ "Tomme", "des", "Pyrénées" ]
							}
, 							{
								"key" : 54,
								"value" : [ "Trou", "du", "Cru" ]
							}
, 							{
								"key" : 55,
								"value" : [ "Valençay" ]
							}
 ]
					}
,
					"id" : "obj-54",
					"maxclass" : "newobj",
					"numinlets" : 1,
					"numoutlets" : 4,
					"outlettype" : [ "", "", "", "" ],
					"patching_rect" : [ 122.0, 1597.0, 51.0, 22.0 ],
					"saved_object_attributes" : 					{
						"embed" : 1
					}
,
					"style" : "",
					"text" : "coll aoc"
				}

			}
, 			{
				"box" : 				{
					"id" : "obj-47",
					"maxclass" : "newobj",
					"numinlets" : 2,
					"numoutlets" : 3,
					"outlettype" : [ "bang", "bang", "int" ],
					"patching_rect" : [ 54.5, 1597.0, 40.0, 22.0 ],
					"style" : "",
					"text" : "uzi 2"
				}

			}
, 			{
				"box" : 				{
					"id" : "obj-45",
					"maxclass" : "newobj",
					"numinlets" : 1,
					"numoutlets" : 1,
					"outlettype" : [ "" ],
					"patching_rect" : [ 611.0, 1395.0, 81.0, 22.0 ],
					"style" : "",
					"text" : "loadmess set"
				}

			}
, 			{
				"box" : 				{
					"id" : "obj-37",
					"maxclass" : "message",
					"numinlets" : 2,
					"numoutlets" : 1,
					"outlettype" : [ "" ],
					"patching_rect" : [ 101.0, 1086.0, 43.0, 22.0 ],
					"style" : "",
					"text" : "length"
				}

			}
, 			{
				"box" : 				{
					"coll_data" : 					{
						"count" : 24,
						"data" : [ 							{
								"key" : 0,
								"value" : [ "groove~" ]
							}
, 							{
								"key" : 1,
								"value" : [ "play~" ]
							}
, 							{
								"key" : 2,
								"value" : [ "wave~" ]
							}
, 							{
								"key" : 3,
								"value" : [ "saw~" ]
							}
, 							{
								"key" : 4,
								"value" : [ "rect~" ]
							}
, 							{
								"key" : 5,
								"value" : [ "train~" ]
							}
, 							{
								"key" : 6,
								"value" : [ "pfft~" ]
							}
, 							{
								"key" : 7,
								"value" : [ "biquad~" ]
							}
, 							{
								"key" : 8,
								"value" : [ "adsr~" ]
							}
, 							{
								"key" : 9,
								"value" : [ "nodes" ]
							}
, 							{
								"key" : 10,
								"value" : [ "noise~" ]
							}
, 							{
								"key" : 11,
								"value" : [ "tapin~", "+", "tapout~" ]
							}
, 							{
								"key" : 12,
								"value" : [ "phasor~" ]
							}
, 							{
								"key" : 13,
								"value" : [ "stutter~" ]
							}
, 							{
								"key" : 14,
								"value" : [ "ring", "modulation" ]
							}
, 							{
								"key" : 15,
								"value" : [ "frequency", "modulation" ]
							}
, 							{
								"key" : 16,
								"value" : [ "function" ]
							}
, 							{
								"key" : 17,
								"value" : [ "additive", "synthesis", "(ioscbank)" ]
							}
, 							{
								"key" : 18,
								"value" : [ "degrade~" ]
							}
, 							{
								"key" : 19,
								"value" : [ "freqshift~" ]
							}
, 							{
								"key" : 20,
								"value" : [ "coll" ]
							}
, 							{
								"key" : 21,
								"value" : [ "overdrive~" ]
							}
, 							{
								"key" : 22,
								"value" : [ "lookup~" ]
							}
, 							{
								"key" : 23,
								"value" : [ "teeth~" ]
							}
 ]
					}
,
					"id" : "obj-33",
					"maxclass" : "newobj",
					"numinlets" : 1,
					"numoutlets" : 4,
					"outlettype" : [ "", "", "", "" ],
					"patching_rect" : [ 101.0, 1116.0, 80.0, 22.0 ],
					"saved_object_attributes" : 					{
						"embed" : 1
					}
,
					"style" : "",
					"text" : "coll concepts"
				}

			}
, 			{
				"box" : 				{
					"id" : "obj-32",
					"maxclass" : "newobj",
					"numinlets" : 2,
					"numoutlets" : 3,
					"outlettype" : [ "bang", "bang", "int" ],
					"patching_rect" : [ 47.0, 1086.0, 40.0, 22.0 ],
					"style" : "",
					"text" : "uzi 6"
				}

			}
, 			{
				"box" : 				{
					"id" : "obj-28",
					"maxclass" : "newobj",
					"numinlets" : 1,
					"numoutlets" : 1,
					"outlettype" : [ "" ],
					"patching_rect" : [ 563.25, 896.0, 81.0, 22.0 ],
					"style" : "",
					"text" : "loadmess set"
				}

			}
, 			{
				"box" : 				{
					"id" : "obj-26",
					"maxclass" : "newobj",
					"numinlets" : 1,
					"numoutlets" : 2,
					"outlettype" : [ "bang", "bang" ],
					"patching_rect" : [ 59.0, 666.0, 29.5, 22.0 ],
					"style" : "",
					"text" : "b"
				}

			}
, 			{
				"box" : 				{
					"coll_data" : 					{
						"count" : 5,
						"data" : [ 							{
								"key" : 0,
								"value" : [ "Red" ]
							}
, 							{
								"key" : 1,
								"value" : [ "Green" ]
							}
, 							{
								"key" : 2,
								"value" : [ "Blue" ]
							}
, 							{
								"key" : 3,
								"value" : [ "Purple" ]
							}
, 							{
								"key" : 4,
								"value" : [ "Orange" ]
							}
 ]
					}
,
					"id" : "obj-23",
					"maxclass" : "newobj",
					"numinlets" : 1,
					"numoutlets" : 4,
					"outlettype" : [ "", "", "", "" ],
					"patching_rect" : [ 75.0, 612.0, 64.0, 22.0 ],
					"saved_object_attributes" : 					{
						"embed" : 1
					}
,
					"style" : "",
					"text" : "coll colors"
				}

			}
, 			{
				"box" : 				{
					"id" : "obj-22",
					"maxclass" : "message",
					"numinlets" : 2,
					"numoutlets" : 1,
					"outlettype" : [ "" ],
					"patching_rect" : [ 75.0, 577.0, 43.0, 22.0 ],
					"style" : "",
					"text" : "length"
				}

			}
, 			{
				"box" : 				{
					"id" : "obj-15",
					"maxclass" : "message",
					"numinlets" : 2,
					"numoutlets" : 1,
					"outlettype" : [ "" ],
					"patching_rect" : [ 239.0, 366.0, 29.5, 22.0 ],
					"style" : "",
					"text" : "set"
				}

			}
, 			{
				"box" : 				{
					"id" : "obj-13",
					"maxclass" : "message",
					"numinlets" : 2,
					"numoutlets" : 1,
					"outlettype" : [ "" ],
					"patching_rect" : [ 584.0, 366.0, 29.5, 22.0 ],
					"style" : "",
					"text" : "set"
				}

			}
, 			{
				"box" : 				{
					"id" : "obj-7",
					"maxclass" : "message",
					"numinlets" : 2,
					"numoutlets" : 1,
					"outlettype" : [ "" ],
					"patching_rect" : [ 28.0, 65.0, 43.0, 22.0 ],
					"style" : "",
					"text" : "length"
				}

			}
, 			{
				"box" : 				{
					"coll_data" : 					{
						"count" : 7,
						"data" : [ 							{
								"key" : 0,
								"value" : [ "Chris" ]
							}
, 							{
								"key" : 1,
								"value" : [ "Felipe" ]
							}
, 							{
								"key" : 2,
								"value" : [ "Brady" ]
							}
, 							{
								"key" : 3,
								"value" : [ "Weilu" ]
							}
, 							{
								"key" : 4,
								"value" : [ "Steven" ]
							}
, 							{
								"key" : 5,
								"value" : [ "Tally" ]
							}
, 							{
								"key" : 6,
								"value" : [ "Jihyun" ]
							}
 ]
					}
,
					"id" : "obj-2",
					"maxclass" : "newobj",
					"numinlets" : 1,
					"numoutlets" : 4,
					"outlettype" : [ "", "", "", "" ],
					"patching_rect" : [ 28.0, 105.0, 107.0, 22.0 ],
					"saved_object_attributes" : 					{
						"embed" : 1
					}
,
					"style" : "",
					"text" : "coll studentnames"
				}

			}
, 			{
				"box" : 				{
					"id" : "obj-151",
					"maxclass" : "newobj",
					"numinlets" : 2,
					"numoutlets" : 2,
					"outlettype" : [ "", "" ],
					"patching_rect" : [ 96.0, 1718.0, 79.0, 22.0 ],
					"style" : "",
					"text" : "route symbol"
				}

			}
, 			{
				"box" : 				{
					"id" : "obj-152",
					"maxclass" : "newobj",
					"numinlets" : 1,
					"numoutlets" : 1,
					"outlettype" : [ "" ],
					"patching_rect" : [ 156.0, 1747.0, 59.0, 22.0 ],
					"style" : "",
					"text" : "tosymbol"
				}

			}
, 			{
				"box" : 				{
					"coll_data" : 					{
						"count" : 56,
						"data" : [ 							{
								"key" : 0,
								"value" : [ "Abondance" ]
							}
, 							{
								"key" : 1,
								"value" : [ "Banon" ]
							}
, 							{
								"key" : 2,
								"value" : [ "Beaufort" ]
							}
, 							{
								"key" : 3,
								"value" : [ "Bleu", "d'Auvergne" ]
							}
, 							{
								"key" : 4,
								"value" : [ "Bleu", "des", "Causses" ]
							}
, 							{
								"key" : 5,
								"value" : [ "Bleu", "de", "Gex" ]
							}
, 							{
								"key" : 6,
								"value" : [ "Bleu", "du", "Vercors-Sassenage" ]
							}
, 							{
								"key" : 7,
								"value" : [ "Brie", "de", "Meaux" ]
							}
, 							{
								"key" : 8,
								"value" : [ "Brie", "de", "Melun" ]
							}
, 							{
								"key" : 9,
								"value" : [ "Brocciu", "Cara", "or", "Brocciu" ]
							}
, 							{
								"key" : 10,
								"value" : [ "Cabecou" ]
							}
, 							{
								"key" : 11,
								"value" : [ "Cancoillotte" ]
							}
, 							{
								"key" : 12,
								"value" : [ "Cantal" ]
							}
, 							{
								"key" : 13,
								"value" : [ "Camembert", "de", "Normandie" ]
							}
, 							{
								"key" : 14,
								"value" : [ "Cazelle", "de", "Saint", "Affrique" ]
							}
, 							{
								"key" : 15,
								"value" : [ "Chabichou", "du", "Poitou" ]
							}
, 							{
								"key" : 16,
								"value" : [ "Chaource" ]
							}
, 							{
								"key" : 17,
								"value" : [ "Chevrotin" ]
							}
, 							{
								"key" : 18,
								"value" : [ "Comté" ]
							}
, 							{
								"key" : 19,
								"value" : [ "Crottin", "de", "Chavignol" ]
							}
, 							{
								"key" : 20,
								"value" : [ "Emmental", "de", "Savoie" ]
							}
, 							{
								"key" : 21,
								"value" : [ "Emmental", "français", "est-central" ]
							}
, 							{
								"key" : 22,
								"value" : [ "Époisses", "de", "Bourgogne" ]
							}
, 							{
								"key" : 23,
								"value" : [ "Fourme", "d'Ambert" ]
							}
, 							{
								"key" : 24,
								"value" : [ "Fourme", "de", "Montbrison" ]
							}
, 							{
								"key" : 25,
								"value" : [ "Fromage", "blanc", "or", "fromage", "frais" ]
							}
, 							{
								"key" : 26,
								"value" : [ "Gruyère" ]
							}
, 							{
								"key" : 27,
								"value" : [ "Laguiole" ]
							}
, 							{
								"key" : 28,
								"value" : [ "Langres" ]
							}
, 							{
								"key" : 29,
								"value" : [ "Livarot" ]
							}
, 							{
								"key" : 30,
								"value" : [ "Mâconnais" ]
							}
, 							{
								"key" : 31,
								"value" : [ "Maroilles", "or", "Marolles" ]
							}
, 							{
								"key" : 32,
								"value" : [ "Mimolette" ]
							}
, 							{
								"key" : 33,
								"value" : [ "Mont", "d'or", "or", "Vacherin", "du", "Haut-Doubs" ]
							}
, 							{
								"key" : 34,
								"value" : [ "Morbier" ]
							}
, 							{
								"key" : 35,
								"value" : [ "Munster", "or", "Munster-Géromé" ]
							}
, 							{
								"key" : 36,
								"value" : [ "Neufchâtel" ]
							}
, 							{
								"key" : 37,
								"value" : [ "Ossau-lraty" ]
							}
, 							{
								"key" : 38,
								"value" : [ "Pélardon" ]
							}
, 							{
								"key" : 39,
								"value" : [ "Picodon", "de", "l'Ardèche", "or", "de", "la", "Drôme" ]
							}
, 							{
								"key" : 40,
								"value" : [ "Pont-l'Évêque" ]
							}
, 							{
								"key" : 41,
								"value" : [ "Pouligny-Saint-Pierre" ]
							}
, 							{
								"key" : 42,
								"value" : [ "Reblochon", "or", "Reblochon", "de", "Savoie" ]
							}
, 							{
								"key" : 43,
								"value" : [ "Rigotte", "de", "Condrieu" ]
							}
, 							{
								"key" : 44,
								"value" : [ "Rocamadour" ]
							}
, 							{
								"key" : 45,
								"value" : [ "Roquefort" ]
							}
, 							{
								"key" : 46,
								"value" : [ "Sainte-Maure", "de", "Touraine" ]
							}
, 							{
								"key" : 47,
								"value" : [ "Saint-Nectaire" ]
							}
, 							{
								"key" : 48,
								"value" : [ "Saint-Félicien" ]
							}
, 							{
								"key" : 49,
								"value" : [ "Salers" ]
							}
, 							{
								"key" : 50,
								"value" : [ "Selles-sur-Cher" ]
							}
, 							{
								"key" : 51,
								"value" : [ "Tome", "des", "Bauges" ]
							}
, 							{
								"key" : 52,
								"value" : [ "Tomme", "de", "Savoie", "and", "Haute-Savoie" ]
							}
, 							{
								"key" : 53,
								"value" : [ "Tomme", "des", "Pyrénées" ]
							}
, 							{
								"key" : 54,
								"value" : [ "Trou", "du", "Cru" ]
							}
, 							{
								"key" : 55,
								"value" : [ "Valençay" ]
							}
 ]
					}
,
					"id" : "obj-149",
					"maxclass" : "newobj",
					"numinlets" : 1,
					"numoutlets" : 4,
					"outlettype" : [ "", "", "", "" ],
					"patching_rect" : [ 96.0, 1679.0, 51.0, 22.0 ],
					"saved_object_attributes" : 					{
						"embed" : 1
					}
,
					"style" : "",
					"text" : "coll aoc"
				}

			}
, 			{
				"box" : 				{
					"id" : "obj-135",
					"maxclass" : "newobj",
					"numinlets" : 1,
					"numoutlets" : 1,
					"outlettype" : [ "" ],
					"patching_rect" : [ 584.25, 1841.0, 81.0, 22.0 ],
					"presentation" : 1,
					"presentation_rect" : [ 1087.25, 49.0, 81.0, 22.0 ],
					"style" : "",
					"text" : "loadmess set"
				}

			}
, 			{
				"box" : 				{
					"id" : "obj-138",
					"maxclass" : "newobj",
					"numinlets" : 1,
					"numoutlets" : 1,
					"outlettype" : [ "" ],
					"patching_rect" : [ 354.25, 1841.0, 98.0, 22.0 ],
					"style" : "",
					"text" : "prepend append"
				}

			}
, 			{
				"box" : 				{
					"id" : "obj-139",
					"maxclass" : "newobj",
					"numinlets" : 1,
					"numoutlets" : 1,
					"outlettype" : [ "" ],
					"patching_rect" : [ 32.25, 1841.0, 98.0, 22.0 ],
					"style" : "",
					"text" : "prepend append"
				}

			}
, 			{
				"box" : 				{
					"fontsize" : 31.303947,
					"id" : "obj-142",
					"maxclass" : "comment",
					"numinlets" : 1,
					"numoutlets" : 0,
					"patching_rect" : [ 354.25, 1884.266602, 311.0, 41.0 ],
					"presentation" : 1,
					"presentation_rect" : [ 361.0, 308.266602, 311.0, 41.0 ],
					"style" : "",
					"text" : "Brie de Meaux"
				}

			}
, 			{
				"box" : 				{
					"fontsize" : 31.303947,
					"id" : "obj-143",
					"maxclass" : "comment",
					"numinlets" : 1,
					"numoutlets" : 0,
					"patching_rect" : [ 32.25, 1884.266602, 311.0, 41.0 ],
					"presentation" : 1,
					"presentation_rect" : [ 39.0, 308.266602, 311.0, 41.0 ],
					"style" : "",
					"text" : "Pont-l'Évêque"
				}

			}
, 			{
				"box" : 				{
					"id" : "obj-144",
					"maxclass" : "newobj",
					"numinlets" : 1,
					"numoutlets" : 4,
					"outlettype" : [ "", "", "", "" ],
					"patching_rect" : [ 96.0, 1799.0, 209.5, 22.0 ],
					"style" : "",
					"text" : "cycle 4"
				}

			}
, 			{
				"box" : 				{
					"id" : "obj-145",
					"maxclass" : "newobj",
					"numinlets" : 2,
					"numoutlets" : 2,
					"outlettype" : [ "int", "bang" ],
					"patching_rect" : [ 96.0, 1636.0, 45.0, 22.0 ],
					"style" : "",
					"text" : "urn 55"
				}

			}
, 			{
				"box" : 				{
					"id" : "obj-146",
					"maxclass" : "message",
					"numinlets" : 2,
					"numoutlets" : 1,
					"outlettype" : [ "" ],
					"patching_rect" : [ 195.0, 1521.0, 37.0, 22.0 ],
					"presentation" : 1,
					"presentation_rect" : [ 1038.0, 49.0, 37.0, 22.0 ],
					"style" : "",
					"text" : "clear"
				}

			}
, 			{
				"box" : 				{
					"id" : "obj-147",
					"maxclass" : "button",
					"numinlets" : 1,
					"numoutlets" : 1,
					"outlettype" : [ "bang" ],
					"patching_rect" : [ 96.0, 1521.0, 24.0, 24.0 ],
					"presentation" : 1,
					"presentation_rect" : [ 999.0, 49.0, 24.0, 24.0 ],
					"style" : ""
				}

			}
, 			{
				"box" : 				{
					"id" : "obj-122",
					"maxclass" : "newobj",
					"numinlets" : 1,
					"numoutlets" : 2,
					"outlettype" : [ "bang", "" ],
					"patching_rect" : [ 350.0, 331.0, 33.0, 22.0 ],
					"style" : "",
					"text" : "t b s"
				}

			}
, 			{
				"box" : 				{
					"id" : "obj-123",
					"maxclass" : "message",
					"numinlets" : 2,
					"numoutlets" : 1,
					"outlettype" : [ "" ],
					"patching_rect" : [ 350.0, 366.0, 69.0, 22.0 ],
					"style" : "",
					"text" : "append \", \""
				}

			}
, 			{
				"box" : 				{
					"id" : "obj-124",
					"maxclass" : "newobj",
					"numinlets" : 1,
					"numoutlets" : 1,
					"outlettype" : [ "" ],
					"patching_rect" : [ 437.0, 366.0, 98.0, 22.0 ],
					"style" : "",
					"text" : "prepend append"
				}

			}
, 			{
				"box" : 				{
					"fontsize" : 31.303947,
					"id" : "obj-125",
					"maxclass" : "comment",
					"numinlets" : 1,
					"numoutlets" : 0,
					"patching_rect" : [ 350.0, 406.266663, 311.0, 41.0 ],
					"presentation" : 1,
					"presentation_rect" : [ 361.0, 453.266663, 311.0, 41.0 ],
					"style" : "",
					"text" : "Chris, Steven, Tally, "
				}

			}
, 			{
				"box" : 				{
					"id" : "obj-121",
					"maxclass" : "newobj",
					"numinlets" : 1,
					"numoutlets" : 2,
					"outlettype" : [ "bang", "" ],
					"patching_rect" : [ 28.0, 331.0, 33.0, 22.0 ],
					"style" : "",
					"text" : "t b s"
				}

			}
, 			{
				"box" : 				{
					"id" : "obj-120",
					"maxclass" : "message",
					"numinlets" : 2,
					"numoutlets" : 1,
					"outlettype" : [ "" ],
					"patching_rect" : [ 28.0, 366.0, 69.0, 22.0 ],
					"style" : "",
					"text" : "append \", \""
				}

			}
, 			{
				"box" : 				{
					"id" : "obj-118",
					"maxclass" : "newobj",
					"numinlets" : 2,
					"numoutlets" : 2,
					"outlettype" : [ "", "" ],
					"patching_rect" : [ 75.0, 1235.0, 79.0, 22.0 ],
					"style" : "",
					"text" : "route symbol"
				}

			}
, 			{
				"box" : 				{
					"id" : "obj-106",
					"maxclass" : "newobj",
					"numinlets" : 1,
					"numoutlets" : 1,
					"outlettype" : [ "" ],
					"patching_rect" : [ 517.0, 1366.0, 73.0, 22.0 ],
					"style" : "",
					"text" : "fromsymbol"
				}

			}
, 			{
				"box" : 				{
					"id" : "obj-84",
					"maxclass" : "message",
					"numinlets" : 2,
					"numoutlets" : 1,
					"outlettype" : [ "" ],
					"patching_rect" : [ 381.0, 1395.0, 69.0, 22.0 ],
					"style" : "",
					"text" : "append \", \""
				}

			}
, 			{
				"box" : 				{
					"id" : "obj-85",
					"maxclass" : "newobj",
					"numinlets" : 1,
					"numoutlets" : 2,
					"outlettype" : [ "bang", "" ],
					"patching_rect" : [ 381.0, 1355.0, 33.0, 22.0 ],
					"style" : "",
					"text" : "t b s"
				}

			}
, 			{
				"box" : 				{
					"id" : "obj-86",
					"maxclass" : "newobj",
					"numinlets" : 1,
					"numoutlets" : 1,
					"outlettype" : [ "" ],
					"patching_rect" : [ 464.0, 1395.0, 98.0, 22.0 ],
					"style" : "",
					"text" : "prepend append"
				}

			}
, 			{
				"box" : 				{
					"fontsize" : 31.303947,
					"id" : "obj-87",
					"maxclass" : "comment",
					"numinlets" : 1,
					"numoutlets" : 0,
					"patching_rect" : [ 381.0, 1439.5, 311.0, 41.0 ],
					"presentation" : 1,
					"presentation_rect" : [ 361.0, 173.5, 311.0, 41.0 ],
					"style" : "",
					"text" : "adsr~, teeth~, train~, "
				}

			}
, 			{
				"box" : 				{
					"id" : "obj-80",
					"maxclass" : "message",
					"numinlets" : 2,
					"numoutlets" : 1,
					"outlettype" : [ "" ],
					"patching_rect" : [ 58.0, 1395.0, 69.0, 22.0 ],
					"style" : "",
					"text" : "append \", \""
				}

			}
, 			{
				"box" : 				{
					"id" : "obj-53",
					"maxclass" : "newobj",
					"numinlets" : 1,
					"numoutlets" : 2,
					"outlettype" : [ "bang", "" ],
					"patching_rect" : [ 58.0, 1355.0, 33.0, 22.0 ],
					"style" : "",
					"text" : "t b s"
				}

			}
, 			{
				"box" : 				{
					"id" : "obj-51",
					"maxclass" : "newobj",
					"numinlets" : 1,
					"numoutlets" : 1,
					"outlettype" : [ "" ],
					"patching_rect" : [ 141.0, 1395.0, 98.0, 22.0 ],
					"style" : "",
					"text" : "prepend append"
				}

			}
, 			{
				"box" : 				{
					"fontsize" : 31.303947,
					"id" : "obj-52",
					"linecount" : 2,
					"maxclass" : "comment",
					"numinlets" : 1,
					"numoutlets" : 0,
					"patching_rect" : [ 58.0, 1439.5, 311.0, 76.0 ],
					"presentation" : 1,
					"presentation_linecount" : 2,
					"presentation_rect" : [ 39.0, 173.5, 311.0, 76.0 ],
					"style" : "",
					"text" : "play~, lookup~, stutter~, "
				}

			}
, 			{
				"box" : 				{
					"id" : "obj-50",
					"maxclass" : "newobj",
					"numinlets" : 1,
					"numoutlets" : 2,
					"outlettype" : [ "", "" ],
					"patching_rect" : [ 75.0, 1298.0, 48.0, 22.0 ],
					"style" : "",
					"text" : "cycle 2"
				}

			}
, 			{
				"box" : 				{
					"id" : "obj-49",
					"maxclass" : "newobj",
					"numinlets" : 1,
					"numoutlets" : 1,
					"outlettype" : [ "" ],
					"patching_rect" : [ 135.0, 1264.0, 59.0, 22.0 ],
					"style" : "",
					"text" : "tosymbol"
				}

			}
, 			{
				"box" : 				{
					"id" : "obj-48",
					"maxclass" : "button",
					"numinlets" : 1,
					"numoutlets" : 1,
					"outlettype" : [ "bang" ],
					"patching_rect" : [ 47.0, 1028.0, 24.0, 24.0 ],
					"presentation" : 1,
					"presentation_rect" : [ 658.0, 49.0, 24.0, 24.0 ],
					"style" : ""
				}

			}
, 			{
				"box" : 				{
					"id" : "obj-46",
					"maxclass" : "message",
					"numinlets" : 2,
					"numoutlets" : 1,
					"outlettype" : [ "" ],
					"patching_rect" : [ 249.0, 1028.0, 37.0, 22.0 ],
					"presentation" : 1,
					"presentation_rect" : [ 700.0, 49.0, 37.0, 22.0 ],
					"style" : "",
					"text" : "clear"
				}

			}
, 			{
				"box" : 				{
					"id" : "obj-44",
					"maxclass" : "newobj",
					"numinlets" : 2,
					"numoutlets" : 2,
					"outlettype" : [ "int", "bang" ],
					"patching_rect" : [ 75.0, 1167.0, 45.0, 22.0 ],
					"style" : "",
					"text" : "urn 22"
				}

			}
, 			{
				"box" : 				{
					"coll_data" : 					{
						"count" : 24,
						"data" : [ 							{
								"key" : 0,
								"value" : [ "groove~" ]
							}
, 							{
								"key" : 1,
								"value" : [ "play~" ]
							}
, 							{
								"key" : 2,
								"value" : [ "wave~" ]
							}
, 							{
								"key" : 3,
								"value" : [ "saw~" ]
							}
, 							{
								"key" : 4,
								"value" : [ "rect~" ]
							}
, 							{
								"key" : 5,
								"value" : [ "train~" ]
							}
, 							{
								"key" : 6,
								"value" : [ "pfft~" ]
							}
, 							{
								"key" : 7,
								"value" : [ "biquad~" ]
							}
, 							{
								"key" : 8,
								"value" : [ "adsr~" ]
							}
, 							{
								"key" : 9,
								"value" : [ "nodes" ]
							}
, 							{
								"key" : 10,
								"value" : [ "noise~" ]
							}
, 							{
								"key" : 11,
								"value" : [ "tapin~", "+", "tapout~" ]
							}
, 							{
								"key" : 12,
								"value" : [ "phasor~" ]
							}
, 							{
								"key" : 13,
								"value" : [ "stutter~" ]
							}
, 							{
								"key" : 14,
								"value" : [ "ring", "modulation" ]
							}
, 							{
								"key" : 15,
								"value" : [ "frequency", "modulation" ]
							}
, 							{
								"key" : 16,
								"value" : [ "function" ]
							}
, 							{
								"key" : 17,
								"value" : [ "additive", "synthesis", "(ioscbank)" ]
							}
, 							{
								"key" : 18,
								"value" : [ "degrade~" ]
							}
, 							{
								"key" : 19,
								"value" : [ "freqshift~" ]
							}
, 							{
								"key" : 20,
								"value" : [ "coll" ]
							}
, 							{
								"key" : 21,
								"value" : [ "overdrive~" ]
							}
, 							{
								"key" : 22,
								"value" : [ "lookup~" ]
							}
, 							{
								"key" : 23,
								"value" : [ "teeth~" ]
							}
 ]
					}
,
					"id" : "obj-43",
					"maxclass" : "newobj",
					"numinlets" : 1,
					"numoutlets" : 4,
					"outlettype" : [ "", "", "", "" ],
					"patching_rect" : [ 75.0, 1206.0, 80.0, 22.0 ],
					"saved_object_attributes" : 					{
						"embed" : 1
					}
,
					"style" : "",
					"text" : "coll concepts"
				}

			}
, 			{
				"box" : 				{
					"id" : "obj-42",
					"maxclass" : "button",
					"numinlets" : 1,
					"numoutlets" : 1,
					"outlettype" : [ "bang" ],
					"patching_rect" : [ 140.0, 152.0, 24.0, 24.0 ],
					"presentation" : 1,
					"presentation_rect" : [ 48.0, 49.0, 24.0, 24.0 ],
					"style" : ""
				}

			}
, 			{
				"box" : 				{
					"id" : "obj-34",
					"maxclass" : "newobj",
					"numinlets" : 1,
					"numoutlets" : 1,
					"outlettype" : [ "" ],
					"patching_rect" : [ 333.25, 896.0, 98.0, 22.0 ],
					"style" : "",
					"text" : "prepend append"
				}

			}
, 			{
				"box" : 				{
					"id" : "obj-35",
					"maxclass" : "newobj",
					"numinlets" : 1,
					"numoutlets" : 1,
					"outlettype" : [ "" ],
					"patching_rect" : [ 11.25, 896.0, 98.0, 22.0 ],
					"style" : "",
					"text" : "prepend append"
				}

			}
, 			{
				"box" : 				{
					"fontsize" : 31.303947,
					"id" : "obj-38",
					"maxclass" : "comment",
					"numinlets" : 1,
					"numoutlets" : 0,
					"patching_rect" : [ 333.25, 939.266602, 311.0, 41.0 ],
					"presentation" : 1,
					"presentation_rect" : [ 361.0, 110.266663, 311.0, 41.0 ],
					"style" : "",
					"text" : "Red"
				}

			}
, 			{
				"box" : 				{
					"fontsize" : 31.303947,
					"id" : "obj-39",
					"maxclass" : "comment",
					"numinlets" : 1,
					"numoutlets" : 0,
					"patching_rect" : [ 11.25, 939.266602, 311.0, 41.0 ],
					"presentation" : 1,
					"presentation_rect" : [ 39.0, 110.266663, 311.0, 41.0 ],
					"style" : "",
					"text" : "Purple"
				}

			}
, 			{
				"box" : 				{
					"id" : "obj-40",
					"maxclass" : "newobj",
					"numinlets" : 1,
					"numoutlets" : 2,
					"outlettype" : [ "", "" ],
					"patching_rect" : [ 75.0, 805.0, 48.0, 22.0 ],
					"style" : "",
					"text" : "cycle 2"
				}

			}
, 			{
				"box" : 				{
					"id" : "obj-30",
					"maxclass" : "newobj",
					"numinlets" : 2,
					"numoutlets" : 2,
					"outlettype" : [ "int", "bang" ],
					"patching_rect" : [ 75.0, 720.0, 38.0, 22.0 ],
					"style" : "",
					"text" : "urn 5"
				}

			}
, 			{
				"box" : 				{
					"id" : "obj-29",
					"maxclass" : "message",
					"numinlets" : 2,
					"numoutlets" : 1,
					"outlettype" : [ "" ],
					"patching_rect" : [ 148.25, 666.0, 37.0, 22.0 ],
					"presentation" : 1,
					"presentation_rect" : [ 372.0, 49.0, 37.0, 22.0 ],
					"style" : "",
					"text" : "clear"
				}

			}
, 			{
				"box" : 				{
					"id" : "obj-27",
					"maxclass" : "button",
					"numinlets" : 1,
					"numoutlets" : 1,
					"outlettype" : [ "bang" ],
					"patching_rect" : [ 75.0, 538.0, 24.0, 24.0 ],
					"presentation" : 1,
					"presentation_rect" : [ 336.0, 49.0, 24.0, 24.0 ],
					"style" : ""
				}

			}
, 			{
				"box" : 				{
					"coll_data" : 					{
						"count" : 5,
						"data" : [ 							{
								"key" : 0,
								"value" : [ "Red" ]
							}
, 							{
								"key" : 1,
								"value" : [ "Green" ]
							}
, 							{
								"key" : 2,
								"value" : [ "Blue" ]
							}
, 							{
								"key" : 3,
								"value" : [ "Purple" ]
							}
, 							{
								"key" : 4,
								"value" : [ "Orange" ]
							}
 ]
					}
,
					"id" : "obj-24",
					"maxclass" : "newobj",
					"numinlets" : 1,
					"numoutlets" : 4,
					"outlettype" : [ "", "", "", "" ],
					"patching_rect" : [ 75.0, 753.0, 64.0, 22.0 ],
					"saved_object_attributes" : 					{
						"embed" : 1
					}
,
					"style" : "",
					"text" : "coll colors"
				}

			}
, 			{
				"box" : 				{
					"id" : "obj-16",
					"maxclass" : "newobj",
					"numinlets" : 1,
					"numoutlets" : 1,
					"outlettype" : [ "" ],
					"patching_rect" : [ 115.0, 366.0, 98.0, 22.0 ],
					"style" : "",
					"text" : "prepend append"
				}

			}
, 			{
				"box" : 				{
					"fontsize" : 31.303947,
					"id" : "obj-12",
					"linecount" : 2,
					"maxclass" : "comment",
					"numinlets" : 1,
					"numoutlets" : 0,
					"patching_rect" : [ 28.0, 406.266663, 311.0, 76.0 ],
					"presentation" : 1,
					"presentation_linecount" : 2,
					"presentation_rect" : [ 39.0, 453.266663, 311.0, 76.0 ],
					"style" : "",
					"text" : "Jihyun, Felipe, Weilu, Brady, "
				}

			}
, 			{
				"box" : 				{
					"id" : "obj-9",
					"maxclass" : "newobj",
					"numinlets" : 1,
					"numoutlets" : 2,
					"outlettype" : [ "", "" ],
					"patching_rect" : [ 91.75, 280.0, 48.0, 22.0 ],
					"style" : "",
					"text" : "cycle 2"
				}

			}
, 			{
				"box" : 				{
					"id" : "obj-8",
					"maxclass" : "message",
					"numinlets" : 2,
					"numoutlets" : 1,
					"outlettype" : [ "" ],
					"patching_rect" : [ 174.0, 152.0, 37.0, 22.0 ],
					"presentation" : 1,
					"presentation_rect" : [ 85.0, 49.0, 37.0, 22.0 ],
					"style" : "",
					"text" : "clear"
				}

			}
, 			{
				"box" : 				{
					"id" : "obj-6",
					"maxclass" : "button",
					"numinlets" : 1,
					"numoutlets" : 1,
					"outlettype" : [ "bang" ],
					"patching_rect" : [ 47.75, 17.0, 24.0, 24.0 ],
					"presentation" : 1,
					"presentation_rect" : [ 227.75, 49.0, 24.0, 24.0 ],
					"style" : ""
				}

			}
, 			{
				"box" : 				{
					"id" : "obj-4",
					"maxclass" : "newobj",
					"numinlets" : 2,
					"numoutlets" : 3,
					"outlettype" : [ "bang", "bang", "int" ],
					"patching_rect" : [ 28.0, 152.0, 43.0, 22.0 ],
					"style" : "",
					"text" : "uzi 16"
				}

			}
, 			{
				"box" : 				{
					"coll_data" : 					{
						"count" : 7,
						"data" : [ 							{
								"key" : 0,
								"value" : [ "Chris" ]
							}
, 							{
								"key" : 1,
								"value" : [ "Felipe" ]
							}
, 							{
								"key" : 2,
								"value" : [ "Brady" ]
							}
, 							{
								"key" : 3,
								"value" : [ "Weilu" ]
							}
, 							{
								"key" : 4,
								"value" : [ "Steven" ]
							}
, 							{
								"key" : 5,
								"value" : [ "Tally" ]
							}
, 							{
								"key" : 6,
								"value" : [ "Jihyun" ]
							}
 ]
					}
,
					"id" : "obj-3",
					"maxclass" : "newobj",
					"numinlets" : 1,
					"numoutlets" : 4,
					"outlettype" : [ "", "", "", "" ],
					"patching_rect" : [ 91.75, 238.0, 107.0, 22.0 ],
					"saved_object_attributes" : 					{
						"embed" : 1
					}
,
					"style" : "",
					"text" : "coll studentnames"
				}

			}
, 			{
				"box" : 				{
					"id" : "obj-1",
					"maxclass" : "newobj",
					"numinlets" : 2,
					"numoutlets" : 2,
					"outlettype" : [ "int", "bang" ],
					"patching_rect" : [ 91.75, 205.0, 45.0, 22.0 ],
					"style" : "",
					"text" : "urn 16"
				}

			}
 ],
		"lines" : [ 			{
				"patchline" : 				{
					"destination" : [ "obj-3", 0 ],
					"disabled" : 0,
					"hidden" : 0,
					"source" : [ "obj-1", 0 ]
				}

			}
, 			{
				"patchline" : 				{
					"destination" : [ "obj-86", 0 ],
					"disabled" : 0,
					"hidden" : 0,
					"source" : [ "obj-106", 0 ]
				}

			}
, 			{
				"patchline" : 				{
					"destination" : [ "obj-49", 0 ],
					"disabled" : 0,
					"hidden" : 0,
					"source" : [ "obj-118", 1 ]
				}

			}
, 			{
				"patchline" : 				{
					"destination" : [ "obj-50", 0 ],
					"disabled" : 0,
					"hidden" : 0,
					"source" : [ "obj-118", 0 ]
				}

			}
, 			{
				"patchline" : 				{
					"destination" : [ "obj-12", 0 ],
					"disabled" : 0,
					"hidden" : 0,
					"source" : [ "obj-120", 0 ]
				}

			}
, 			{
				"patchline" : 				{
					"destination" : [ "obj-120", 0 ],
					"disabled" : 0,
					"hidden" : 0,
					"source" : [ "obj-121", 0 ]
				}

			}
, 			{
				"patchline" : 				{
					"destination" : [ "obj-16", 0 ],
					"disabled" : 0,
					"hidden" : 0,
					"source" : [ "obj-121", 1 ]
				}

			}
, 			{
				"patchline" : 				{
					"destination" : [ "obj-123", 0 ],
					"disabled" : 0,
					"hidden" : 0,
					"source" : [ "obj-122", 0 ]
				}

			}
, 			{
				"patchline" : 				{
					"destination" : [ "obj-124", 0 ],
					"disabled" : 0,
					"hidden" : 0,
					"source" : [ "obj-122", 1 ]
				}

			}
, 			{
				"patchline" : 				{
					"destination" : [ "obj-125", 0 ],
					"disabled" : 0,
					"hidden" : 0,
					"source" : [ "obj-123", 0 ]
				}

			}
, 			{
				"patchline" : 				{
					"destination" : [ "obj-125", 0 ],
					"disabled" : 0,
					"hidden" : 0,
					"source" : [ "obj-124", 0 ]
				}

			}
, 			{
				"patchline" : 				{
					"destination" : [ "obj-125", 0 ],
					"disabled" : 0,
					"hidden" : 0,
					"source" : [ "obj-13", 0 ]
				}

			}
, 			{
				"patchline" : 				{
					"destination" : [ "obj-142", 0 ],
					"disabled" : 0,
					"hidden" : 0,
					"source" : [ "obj-135", 0 ]
				}

			}
, 			{
				"patchline" : 				{
					"destination" : [ "obj-143", 0 ],
					"disabled" : 0,
					"hidden" : 0,
					"source" : [ "obj-135", 0 ]
				}

			}
, 			{
				"patchline" : 				{
					"destination" : [ "obj-142", 0 ],
					"disabled" : 0,
					"hidden" : 0,
					"source" : [ "obj-138", 0 ]
				}

			}
, 			{
				"patchline" : 				{
					"destination" : [ "obj-143", 0 ],
					"disabled" : 0,
					"hidden" : 0,
					"source" : [ "obj-139", 0 ]
				}

			}
, 			{
				"patchline" : 				{
					"destination" : [ "obj-138", 0 ],
					"disabled" : 0,
					"hidden" : 0,
					"source" : [ "obj-144", 1 ]
				}

			}
, 			{
				"patchline" : 				{
					"destination" : [ "obj-139", 0 ],
					"disabled" : 0,
					"hidden" : 0,
					"source" : [ "obj-144", 0 ]
				}

			}
, 			{
				"patchline" : 				{
					"destination" : [ "obj-149", 0 ],
					"disabled" : 0,
					"hidden" : 0,
					"source" : [ "obj-145", 0 ]
				}

			}
, 			{
				"patchline" : 				{
					"destination" : [ "obj-145", 0 ],
					"disabled" : 0,
					"hidden" : 0,
					"midpoints" : [ 204.5, 1626.0, 105.5, 1626.0 ],
					"source" : [ "obj-146", 0 ]
				}

			}
, 			{
				"patchline" : 				{
					"destination" : [ "obj-47", 0 ],
					"disabled" : 0,
					"hidden" : 0,
					"source" : [ "obj-147", 0 ]
				}

			}
, 			{
				"patchline" : 				{
					"destination" : [ "obj-56", 0 ],
					"disabled" : 0,
					"hidden" : 0,
					"source" : [ "obj-147", 0 ]
				}

			}
, 			{
				"patchline" : 				{
					"destination" : [ "obj-151", 0 ],
					"disabled" : 0,
					"hidden" : 0,
					"source" : [ "obj-149", 0 ]
				}

			}
, 			{
				"patchline" : 				{
					"destination" : [ "obj-12", 0 ],
					"disabled" : 0,
					"hidden" : 0,
					"source" : [ "obj-15", 0 ]
				}

			}
, 			{
				"patchline" : 				{
					"destination" : [ "obj-144", 0 ],
					"disabled" : 0,
					"hidden" : 0,
					"source" : [ "obj-151", 0 ]
				}

			}
, 			{
				"patchline" : 				{
					"destination" : [ "obj-152", 0 ],
					"disabled" : 0,
					"hidden" : 0,
					"source" : [ "obj-151", 1 ]
				}

			}
, 			{
				"patchline" : 				{
					"destination" : [ "obj-144", 0 ],
					"disabled" : 0,
					"hidden" : 0,
					"source" : [ "obj-152", 0 ]
				}

			}
, 			{
				"patchline" : 				{
					"destination" : [ "obj-12", 0 ],
					"disabled" : 0,
					"hidden" : 0,
					"source" : [ "obj-16", 0 ]
				}

			}
, 			{
				"patchline" : 				{
					"destination" : [ "obj-1", 1 ],
					"disabled" : 0,
					"hidden" : 0,
					"midpoints" : [ 37.5, 140.5, 127.25, 140.5 ],
					"source" : [ "obj-2", 0 ]
				}

			}
, 			{
				"patchline" : 				{
					"destination" : [ "obj-4", 0 ],
					"disabled" : 0,
					"hidden" : 0,
					"source" : [ "obj-2", 0 ]
				}

			}
, 			{
				"patchline" : 				{
					"destination" : [ "obj-23", 0 ],
					"disabled" : 0,
					"hidden" : 0,
					"source" : [ "obj-22", 0 ]
				}

			}
, 			{
				"patchline" : 				{
					"destination" : [ "obj-26", 0 ],
					"disabled" : 0,
					"hidden" : 0,
					"source" : [ "obj-23", 0 ]
				}

			}
, 			{
				"patchline" : 				{
					"destination" : [ "obj-30", 1 ],
					"disabled" : 0,
					"hidden" : 0,
					"midpoints" : [ 84.5, 642.5, 103.5, 642.5 ],
					"source" : [ "obj-23", 0 ]
				}

			}
, 			{
				"patchline" : 				{
					"destination" : [ "obj-40", 0 ],
					"disabled" : 0,
					"hidden" : 0,
					"source" : [ "obj-24", 0 ]
				}

			}
, 			{
				"patchline" : 				{
					"destination" : [ "obj-30", 0 ],
					"disabled" : 0,
					"hidden" : 0,
					"source" : [ "obj-26", 0 ]
				}

			}
, 			{
				"patchline" : 				{
					"destination" : [ "obj-22", 0 ],
					"disabled" : 0,
					"hidden" : 0,
					"source" : [ "obj-27", 0 ]
				}

			}
, 			{
				"patchline" : 				{
					"destination" : [ "obj-38", 0 ],
					"disabled" : 0,
					"hidden" : 0,
					"source" : [ "obj-28", 0 ]
				}

			}
, 			{
				"patchline" : 				{
					"destination" : [ "obj-39", 0 ],
					"disabled" : 0,
					"hidden" : 0,
					"source" : [ "obj-28", 0 ]
				}

			}
, 			{
				"patchline" : 				{
					"destination" : [ "obj-30", 0 ],
					"disabled" : 0,
					"hidden" : 0,
					"source" : [ "obj-29", 0 ]
				}

			}
, 			{
				"patchline" : 				{
					"destination" : [ "obj-9", 0 ],
					"disabled" : 0,
					"hidden" : 0,
					"source" : [ "obj-3", 0 ]
				}

			}
, 			{
				"patchline" : 				{
					"destination" : [ "obj-24", 0 ],
					"disabled" : 0,
					"hidden" : 0,
					"source" : [ "obj-30", 0 ]
				}

			}
, 			{
				"patchline" : 				{
					"destination" : [ "obj-44", 0 ],
					"disabled" : 0,
					"hidden" : 0,
					"source" : [ "obj-32", 0 ]
				}

			}
, 			{
				"patchline" : 				{
					"destination" : [ "obj-44", 1 ],
					"disabled" : 0,
					"hidden" : 0,
					"source" : [ "obj-33", 0 ]
				}

			}
, 			{
				"patchline" : 				{
					"destination" : [ "obj-38", 0 ],
					"disabled" : 0,
					"hidden" : 0,
					"source" : [ "obj-34", 0 ]
				}

			}
, 			{
				"patchline" : 				{
					"destination" : [ "obj-39", 0 ],
					"disabled" : 0,
					"hidden" : 0,
					"source" : [ "obj-35", 0 ]
				}

			}
, 			{
				"patchline" : 				{
					"destination" : [ "obj-33", 0 ],
					"disabled" : 0,
					"hidden" : 0,
					"source" : [ "obj-37", 0 ]
				}

			}
, 			{
				"patchline" : 				{
					"destination" : [ "obj-1", 0 ],
					"disabled" : 0,
					"hidden" : 0,
					"source" : [ "obj-4", 0 ]
				}

			}
, 			{
				"patchline" : 				{
					"destination" : [ "obj-34", 0 ],
					"disabled" : 0,
					"hidden" : 0,
					"source" : [ "obj-40", 1 ]
				}

			}
, 			{
				"patchline" : 				{
					"destination" : [ "obj-35", 0 ],
					"disabled" : 0,
					"hidden" : 0,
					"source" : [ "obj-40", 0 ]
				}

			}
, 			{
				"patchline" : 				{
					"destination" : [ "obj-1", 0 ],
					"disabled" : 0,
					"hidden" : 0,
					"source" : [ "obj-42", 0 ]
				}

			}
, 			{
				"patchline" : 				{
					"destination" : [ "obj-118", 0 ],
					"disabled" : 0,
					"hidden" : 0,
					"source" : [ "obj-43", 0 ]
				}

			}
, 			{
				"patchline" : 				{
					"destination" : [ "obj-43", 0 ],
					"disabled" : 0,
					"hidden" : 0,
					"source" : [ "obj-44", 0 ]
				}

			}
, 			{
				"patchline" : 				{
					"destination" : [ "obj-52", 0 ],
					"disabled" : 0,
					"hidden" : 0,
					"source" : [ "obj-45", 0 ]
				}

			}
, 			{
				"patchline" : 				{
					"destination" : [ "obj-87", 0 ],
					"disabled" : 0,
					"hidden" : 0,
					"source" : [ "obj-45", 0 ]
				}

			}
, 			{
				"patchline" : 				{
					"destination" : [ "obj-44", 0 ],
					"disabled" : 0,
					"hidden" : 0,
					"midpoints" : [ 258.5, 1153.0, 84.5, 1153.0 ],
					"source" : [ "obj-46", 0 ]
				}

			}
, 			{
				"patchline" : 				{
					"destination" : [ "obj-145", 0 ],
					"disabled" : 0,
					"hidden" : 0,
					"source" : [ "obj-47", 0 ]
				}

			}
, 			{
				"patchline" : 				{
					"destination" : [ "obj-32", 0 ],
					"disabled" : 0,
					"hidden" : 0,
					"source" : [ "obj-48", 0 ]
				}

			}
, 			{
				"patchline" : 				{
					"destination" : [ "obj-37", 0 ],
					"disabled" : 0,
					"hidden" : 0,
					"source" : [ "obj-48", 0 ]
				}

			}
, 			{
				"patchline" : 				{
					"destination" : [ "obj-50", 0 ],
					"disabled" : 0,
					"hidden" : 0,
					"source" : [ "obj-49", 0 ]
				}

			}
, 			{
				"patchline" : 				{
					"destination" : [ "obj-12", 0 ],
					"disabled" : 0,
					"hidden" : 0,
					"source" : [ "obj-5", 0 ]
				}

			}
, 			{
				"patchline" : 				{
					"destination" : [ "obj-125", 0 ],
					"disabled" : 0,
					"hidden" : 0,
					"source" : [ "obj-5", 0 ]
				}

			}
, 			{
				"patchline" : 				{
					"destination" : [ "obj-53", 0 ],
					"disabled" : 0,
					"hidden" : 0,
					"source" : [ "obj-50", 0 ]
				}

			}
, 			{
				"patchline" : 				{
					"destination" : [ "obj-85", 0 ],
					"disabled" : 0,
					"hidden" : 0,
					"source" : [ "obj-50", 1 ]
				}

			}
, 			{
				"patchline" : 				{
					"destination" : [ "obj-52", 0 ],
					"disabled" : 0,
					"hidden" : 0,
					"source" : [ "obj-51", 0 ]
				}

			}
, 			{
				"patchline" : 				{
					"destination" : [ "obj-51", 0 ],
					"disabled" : 0,
					"hidden" : 0,
					"source" : [ "obj-53", 1 ]
				}

			}
, 			{
				"patchline" : 				{
					"destination" : [ "obj-80", 0 ],
					"disabled" : 0,
					"hidden" : 0,
					"source" : [ "obj-53", 0 ]
				}

			}
, 			{
				"patchline" : 				{
					"destination" : [ "obj-145", 1 ],
					"disabled" : 0,
					"hidden" : 0,
					"source" : [ "obj-54", 0 ]
				}

			}
, 			{
				"patchline" : 				{
					"destination" : [ "obj-54", 0 ],
					"disabled" : 0,
					"hidden" : 0,
					"source" : [ "obj-56", 0 ]
				}

			}
, 			{
				"patchline" : 				{
					"destination" : [ "obj-13", 0 ],
					"disabled" : 0,
					"hidden" : 0,
					"midpoints" : [ 57.25, 53.5, 593.5, 53.5 ],
					"source" : [ "obj-6", 0 ]
				}

			}
, 			{
				"patchline" : 				{
					"destination" : [ "obj-15", 0 ],
					"disabled" : 0,
					"hidden" : 0,
					"midpoints" : [ 57.25, 52.5, 248.5, 52.5 ],
					"source" : [ "obj-6", 0 ]
				}

			}
, 			{
				"patchline" : 				{
					"destination" : [ "obj-7", 0 ],
					"disabled" : 0,
					"hidden" : 0,
					"source" : [ "obj-6", 0 ]
				}

			}
, 			{
				"patchline" : 				{
					"destination" : [ "obj-2", 0 ],
					"disabled" : 0,
					"hidden" : 0,
					"source" : [ "obj-7", 0 ]
				}

			}
, 			{
				"patchline" : 				{
					"destination" : [ "obj-1", 0 ],
					"disabled" : 0,
					"hidden" : 0,
					"source" : [ "obj-8", 0 ]
				}

			}
, 			{
				"patchline" : 				{
					"destination" : [ "obj-52", 0 ],
					"disabled" : 0,
					"hidden" : 0,
					"source" : [ "obj-80", 0 ]
				}

			}
, 			{
				"patchline" : 				{
					"destination" : [ "obj-87", 0 ],
					"disabled" : 0,
					"hidden" : 0,
					"source" : [ "obj-84", 0 ]
				}

			}
, 			{
				"patchline" : 				{
					"destination" : [ "obj-106", 0 ],
					"disabled" : 0,
					"hidden" : 0,
					"source" : [ "obj-85", 1 ]
				}

			}
, 			{
				"patchline" : 				{
					"destination" : [ "obj-84", 0 ],
					"disabled" : 0,
					"hidden" : 0,
					"source" : [ "obj-85", 0 ]
				}

			}
, 			{
				"patchline" : 				{
					"destination" : [ "obj-87", 0 ],
					"disabled" : 0,
					"hidden" : 0,
					"source" : [ "obj-86", 0 ]
				}

			}
, 			{
				"patchline" : 				{
					"destination" : [ "obj-121", 0 ],
					"disabled" : 0,
					"hidden" : 0,
					"source" : [ "obj-9", 0 ]
				}

			}
, 			{
				"patchline" : 				{
					"destination" : [ "obj-122", 0 ],
					"disabled" : 0,
					"hidden" : 0,
					"source" : [ "obj-9", 1 ]
				}

			}
 ],
		"dependency_cache" : [  ],
		"autosave" : 0
	}

}
